<svg xmlns="http://www.w3.org/2000/svg" width="1600" height="1200" viewBox="0 0 1600 1200" preserveAspectRatio="xMidYMax slice"><g><polygon points="-58.6,-51.6 -57.9,-51.2 -57.9,-50.4 -58.6,-50.0 -59.3,-50.4 -59.3,-51.2" fill="#0f172a" fill-opacity="0.04"/><polygon points="0.0,-51.6 0.7,-51.2 0.7,-50.4 0.0,-50.0 -0.7,-50.4 -0.7,-51.2" fill="#0f172a" fill-opacity="0.04"/><polygon points="58.6,-51.6 59.3,-51.2 59.3,-50.4 58.6,-50.0 57.9,-50.4 57.9,-51.2" fill="#0f172a" fill-opacity="0.04"/><polygon points="117.2,-51.6 117.9,-51.2 117.9,-50.4 117.2,-50.0 116.5,-50.4 116.5,-51.2" fill="#0f172a" fill-opacity="0.04"/><polygon points="175.8,-51.6 176.5,-51.2 176.5,-50.4 175.8,-50.0 175.1,-50.4 175.1,-51.2" fill="#0f172a" fill-opacity="0.04"/><polygon points="234.5,-51.6 235.1,-51.2 235.1,-50.4 234.5,-50.0 233.8,-50.4 233.8,-51.2" fill="#0f172a" fill-opacity="0.04"/><polygon points="293.1,-51.6 293.8,-51.2 293.8,-50.4 293.1,-50.0 292.4,-50.4 292.4,-51.2" fill="#0f172a" fill-opacity="0.04"/><polygon points="351.7,-51.6 352.4,-51.2 352.4,-50.4 351.7,-50.0 351.0,-50.4 351.0,-51.2" fill="#0f172a" fill-opacity="0.04"/><polygon points="410.3,-51.6 411.0,-51.2 411.0,-50.4 410.3,-50.0 409.6,-50.4 409.6,-51.2" fill="#0f172a" fill-opacity="0.04"/><polygon points="468.9,-51.6 469.6,-51.2 469.6,-50.4 468.9,-50.0 468.2,-50.4 468.2,-51.2" fill="#0f172a" fill-opacity="0.04"/><polygon points="527.5,-51.6 528.2,-51.2 528.2,-50.4 527.5,-50.0 526.8,-50.4 526.8,-51.2" fill="#0f172a" fill-opacity="0.04"/><polygon points="586.1,-51.6 586.8,-51.2 586.8,-50.4 586.1,-50.0 585.4,-50.4 585.4,-51.2" fill="#0f172a" fill-opacity="0.04"/><polygon points="644.7,-51.6 645.4,-51.2 645.4,-50.4 644.7,-50.0 644.0,-50.4 644.0,-51.2" fill="#0f172a" fill-opacity="0.04"/><polygon points="703.4,-51.6 704.0,-51.2 704.0,-50.4 703.4,-50.0 702.7,-50.4 702.7,-51.2" fill="#0f172a" fill-opacity="0.04"/><polygon points="762.0,-51.6 762.7,-51.2 762.7,-50.4 762.0,-50.0 761.3,-50.4 761.3,-51.2" fill="#0f172a" fill-opacity="0.04"/><polygon points="820.6,-51.6 821.3,-51.2 821.3,-50.4 820.6,-50.0 819.9,-50.4 819.9,-51.2" fill="#0f172a" fill-opacity="0.04"/><polygon points="879.2,-51.6 879.9,-51.2 879.9,-50.4 879.2,-50.0 878.5,-50.4 878.5,-51.2" fill="#0f172a" fill-opacity="0.04"/><polygon points="937.8,-51.6 938.5,-51.2 938.5,-50.4 937.8,-50.0 937.1,-50.4 937.1,-51.2" fill="#0f172a" fill-opacity="0.04"/><polygon points="996.4,-51.6 997.1,-51.2 997.1,-50.4 996.4,-50.0 995.7,-50.4 995.7,-51.2" fill="#0f172a" fill-opacity="0.04"/><polygon points="1055.0,-51.6 1055.7,-51.2 1055.7,-50.4 1055.0,-50.0 1054.3,-50.4 1054.3,-51.2" fill="#0f172a" fill-opacity="0.04"/><polygon points="1113.6,-51.6 1114.3,-51.2 1114.3,-50.4 1113.6,-50.0 1112.9,-50.4 1112.9,-51.2" fill="#0f172a" fill-opacity="0.04"/><polygon points="1172.3,-51.6 1172.9,-51.2 1172.9,-50.4 1172.3,-50.0 1171.6,-50.4 1171.6,-51.2" fill="#0f172a" fill-opacity="0.04"/><polygon points="1230.9,-51.6 1231.6,-51.2 1231.6,-50.4 1230.9,-50.0 1230.2,-50.4 1230.2,-51.2" fill="#0f172a" fill-opacity="0.04"/><polygon points="1289.5,-51.6 1290.2,-51.2 1290.2,-50.4 1289.5,-50.0 1288.8,-50.4 1288.8,-51.2" fill="#0f172a" fill-opacity="0.04"/><polygon points="1348.1,-51.6 1348.8,-51.2 1348.8,-50.4 1348.1,-50.0 1347.4,-50.4 1347.4,-51.2" fill="#0f172a" fill-opacity="0.04"/><polygon points="1406.7,-51.6 1407.4,-51.2 1407.4,-50.4 1406.7,-50.0 1406.0,-50.4 1406.0,-51.2" fill="#0f172a" fill-opacity="0.04"/><polygon points="1465.3,-51.6 1466.0,-51.2 1466.0,-50.4 1465.3,-50.0 1464.6,-50.4 1464.6,-51.2" fill="#0f172a" fill-opacity="0.04"/><polygon points="1523.9,-51.6 1524.6,-51.2 1524.6,-50.4 1523.9,-50.0 1523.2,-50.4 1523.2,-51.2" fill="#0f172a" fill-opacity="0.04"/><polygon points="1582.5,-51.6 1583.2,-51.2 1583.2,-50.4 1582.5,-50.0 1581.8,-50.4 1581.8,-51.2" fill="#0f172a" fill-opacity="0.04"/><polygon points="1641.2,-51.6 1641.8,-51.2 1641.8,-50.4 1641.2,-50.0 1640.5,-50.4 1640.5,-51.2" fill="#0f172a" fill-opacity="0.04"/><polygon points="-29.3,-0.8 -28.6,-0.4 -28.6,0.4 -29.3,0.8 -30.0,0.4 -30.0,-0.4" fill="#0f172a" fill-opacity="0.04"/><polygon points="29.3,-0.8 30.0,-0.4 30.0,0.4 29.3,0.8 28.6,0.4 28.6,-0.4" fill="#0f172a" fill-opacity="0.04"/><polygon points="87.9,-0.8 88.6,-0.4 88.6,0.4 87.9,0.8 87.2,0.4 87.2,-0.4" fill="#0f172a" fill-opacity="0.04"/><polygon points="146.5,-0.8 147.2,-0.4 147.2,0.4 146.5,0.8 145.8,0.4 145.8,-0.4" fill="#0f172a" fill-opacity="0.04"/><polygon points="205.1,-0.8 205.8,-0.4 205.8,0.4 205.1,0.8 204.5,0.4 204.5,-0.4" fill="#0f172a" fill-opacity="0.04"/><polygon points="263.8,-0.8 264.4,-0.4 264.4,0.4 263.8,0.8 263.1,0.4 263.1,-0.4" fill="#0f172a" fill-opacity="0.04"/><polygon points="322.4,-0.8 323.1,-0.4 323.1,0.4 322.4,0.8 321.7,0.4 321.7,-0.4" fill="#0f172a" fill-opacity="0.04"/><polygon points="381.0,-0.8 381.7,-0.4 381.7,0.4 381.0,0.8 380.3,0.4 380.3,-0.4" fill="#0f172a" fill-opacity="0.04"/><polygon points="439.6,-0.8 440.3,-0.4 440.3,0.4 439.6,0.8 438.9,0.4 438.9,-0.4" fill="#0f172a" fill-opacity="0.04"/><polygon points="498.2,-0.8 498.9,-0.4 498.9,0.4 498.2,0.8 497.5,0.4 497.5,-0.4" fill="#0f172a" fill-opacity="0.04"/><polygon points="556.8,-0.8 557.5,-0.4 557.5,0.4 556.8,0.8 556.1,0.4 556.1,-0.4" fill="#0f172a" fill-opacity="0.04"/><polygon points="615.4,-0.8 616.1,-0.4 616.1,0.4 615.4,0.8 614.7,0.4 614.7,-0.4" fill="#0f172a" fill-opacity="0.04"/><polygon points="674.0,-0.8 674.7,-0.4 674.7,0.4 674.0,0.8 673.4,0.4 673.4,-0.4" fill="#0f172a" fill-opacity="0.04"/><polygon points="732.7,-0.8 733.4,-0.4 733.4,0.4 732.7,0.8 732.0,0.4 732.0,-0.4" fill="#0f172a" fill-opacity="0.04"/><polygon points="791.3,-0.8 792.0,-0.4 792.0,0.4 791.3,0.8 790.6,0.4 790.6,-0.4" fill="#0f172a" fill-opacity="0.04"/><polygon points="849.9,-0.8 850.6,-0.4 850.6,0.4 849.9,0.8 849.2,0.4 849.2,-0.4" fill="#0f172a" fill-opacity="0.04"/><polygon points="908.5,-0.8 909.2,-0.4 909.2,0.4 908.5,0.8 907.8,0.4 907.8,-0.4" fill="#0f172a" fill-opacity="0.04"/><polygon points="967.1,-0.8 967.8,-0.4 967.8,0.4 967.1,0.8 966.4,0.4 966.4,-0.4" fill="#0f172a" fill-opacity="0.04"/><polygon points="1025.7,-0.8 1026.4,-0.4 1026.4,0.4 1025.7,0.8 1025.0,0.4 1025.0,-0.4" fill="#0f172a" fill-opacity="0.04"/><polygon points="1084.3,-0.8 1085.0,-0.4 1085.0,0.4 1084.3,0.8 1083.6,0.4 1083.6,-0.4" fill="#0f172a" fill-opacity="0.04"/><polygon points="1142.9,-0.8 1143.6,-0.4 1143.6,0.4 1142.9,0.8 1142.3,0.4 1142.3,-0.4" fill="#0f172a" fill-opacity="0.04"/><polygon points="1201.6,-0.8 1202.3,-0.4 1202.3,0.4 1201.6,0.8 1200.9,0.4 1200.9,-0.4" fill="#0f172a" fill-opacity="0.04"/><polygon points="1260.2,-0.8 1260.9,-0.4 1260.9,0.4 1260.2,0.8 1259.5,0.4 1259.5,-0.4" fill="#0f172a" fill-opacity="0.04"/><polygon points="1318.8,-0.8 1319.5,-0.4 1319.5,0.4 1318.8,0.8 1318.1,0.4 1318.1,-0.4" fill="#0f172a" fill-opacity="0.04"/><polygon points="1377.4,-0.8 1378.1,-0.4 1378.1,0.4 1377.4,0.8 1376.7,0.4 1376.7,-0.4" fill="#0f172a" fill-opacity="0.04"/><polygon points="1436.0,-0.8 1436.7,-0.4 1436.7,0.4 1436.0,0.8 1435.3,0.4 1435.3,-0.4" fill="#0f172a" fill-opacity="0.04"/><polygon points="1494.6,-0.8 1495.3,-0.4 1495.3,0.4 1494.6,0.8 1493.9,0.4 1493.9,-0.4" fill="#0f172a" fill-opacity="0.04"/><polygon points="1553.2,-0.8 1553.9,-0.4 1553.9,0.4 1553.2,0.8 1552.5,0.4 1552.5,-0.4" fill="#0f172a" fill-opacity="0.04"/><polygon points="1611.8,-0.8 1612.5,-0.4 1612.5,0.4 1611.8,0.8 1611.2,0.4 1611.2,-0.4" fill="#0f172a" fill-opacity="0.04"/><polygon points="-58.6,49.9 -57.9,50.3 -57.9,51.2 -58.6,51.6 -59.4,51.2 -59.4,50.3" fill="#0f172a" fill-opacity="0.04"/><polygon points="0.0,49.9 0.7,50.3 0.7,51.2 0.0,51.6 -0.7,51.2 -0.7,50.3" fill="#0f172a" fill-opacity="0.04"/><polygon points="58.6,49.9 59.4,50.3 59.4,51.2 58.6,51.6 57.9,51.2 57.9,50.3" fill="#0f172a" fill-opacity="0.04"/><polygon points="117.2,49.9 118.0,50.3 118.0,51.2 117.2,51.6 116.5,51.2 116.5,50.3" fill="#0f172a" fill-opacity="0.04"/><polygon points="175.8,49.9 176.6,50.3 176.6,51.2 175.8,51.6 175.1,51.2 175.1,50.3" fill="#0f172a" fill-opacity="0.04"/><polygon points="234.5,49.9 235.2,50.3 235.2,51.2 234.5,51.6 233.7,51.2 233.7,50.3" fill="#0f172a" fill-opacity="0.04"/><polygon points="293.1,49.9 293.8,50.3 293.8,51.2 293.1,51.6 292.3,51.2 292.3,50.3" fill="#0f172a" fill-opacity="0.04"/><polygon points="351.7,49.9 352.4,50.3 352.4,51.2 351.7,51.6 350.9,51.2 350.9,50.3" fill="#0f172a" fill-opacity="0.04"/><polygon points="410.3,49.9 411.0,50.3 411.0,51.2 410.3,51.6 409.5,51.2 409.5,50.3" fill="#0f172a" fill-opacity="0.04"/><polygon points="468.9,49.9 469.6,50.3 469.6,51.2 468.9,51.6 468.2,51.2 468.2,50.3" fill="#0f172a" fill-opacity="0.04"/><polygon points="527.5,49.9 528.3,50.3 528.3,51.2 527.5,51.6 526.8,51.2 526.8,50.3" fill="#0f172a" fill-opacity="0.04"/><polygon points="586.1,49.9 586.9,50.3 586.9,51.2 586.1,51.6 585.4,51.2 585.4,50.3" fill="#0f172a" fill-opacity="0.04"/><polygon points="644.7,49.9 645.5,50.3 645.5,51.2 644.7,51.6 644.0,51.2 644.0,50.3" fill="#0f172a" fill-opacity="0.04"/><polygon points="703.4,49.9 704.1,50.3 704.1,51.2 703.4,51.6 702.6,51.2 702.6,50.3" fill="#0f172a" fill-opacity="0.04"/><polygon points="762.0,49.9 762.7,50.3 762.7,51.2 762.0,51.6 761.2,51.2 761.2,50.3" fill="#0f172a" fill-opacity="0.04"/><polygon points="820.6,49.9 821.3,50.3 821.3,51.2 820.6,51.6 819.8,51.2 819.8,50.3" fill="#0f172a" fill-opacity="0.04"/><polygon points="879.2,49.9 879.9,50.3 879.9,51.2 879.2,51.6 878.4,51.2 878.4,50.3" fill="#0f172a" fill-opacity="0.04"/><polygon points="937.8,49.9 938.5,50.3 938.5,51.2 937.8,51.6 937.1,51.2 937.1,50.3" fill="#0f172a" fill-opacity="0.04"/><polygon points="996.4,49.9 997.2,50.3 997.2,51.2 996.4,51.6 995.7,51.2 995.7,50.3" fill="#0f172a" fill-opacity="0.04"/><polygon points="1055.0,49.9 1055.8,50.3 1055.8,51.2 1055.0,51.6 1054.3,51.2 1054.3,50.3" fill="#0f172a" fill-opacity="0.04"/><polygon points="1113.6,49.9 1114.4,50.3 1114.4,51.2 1113.6,51.6 1112.9,51.2 1112.9,50.3" fill="#0f172a" fill-opacity="0.04"/><polygon points="1172.3,49.9 1173.0,50.3 1173.0,51.2 1172.3,51.6 1171.5,51.2 1171.5,50.3" fill="#0f172a" fill-opacity="0.04"/><polygon points="1230.9,49.9 1231.6,50.3 1231.6,51.2 1230.9,51.6 1230.1,51.2 1230.1,50.3" fill="#0f172a" fill-opacity="0.04"/><polygon points="1289.5,49.9 1290.2,50.3 1290.2,51.2 1289.5,51.6 1288.7,51.2 1288.7,50.3" fill="#0f172a" fill-opacity="0.04"/><polygon points="1348.1,49.9 1348.8,50.3 1348.8,51.2 1348.1,51.6 1347.3,51.2 1347.3,50.3" fill="#0f172a" fill-opacity="0.04"/><polygon points="1406.7,49.9 1407.4,50.3 1407.4,51.2 1406.7,51.6 1406.0,51.2 1406.0,50.3" fill="#0f172a" fill-opacity="0.04"/><polygon points="1465.3,49.9 1466.1,50.3 1466.1,51.2 1465.3,51.6 1464.6,51.2 1464.6,50.3" fill="#0f172a" fill-opacity="0.04"/><polygon points="1523.9,49.9 1524.7,50.3 1524.7,51.2 1523.9,51.6 1523.2,51.2 1523.2,50.3" fill="#0f172a" fill-opacity="0.04"/><polygon points="1582.5,49.9 1583.3,50.3 1583.3,51.2 1582.5,51.6 1581.8,51.2 1581.8,50.3" fill="#0f172a" fill-opacity="0.04"/><polygon points="1641.2,49.9 1641.9,50.3 1641.9,51.2 1641.2,51.6 1640.4,51.2 1640.4,50.3" fill="#0f172a" fill-opacity="0.04"/><polygon points="-29.3,100.5 -28.4,101.0 -28.4,102.0 -29.3,102.6 -30.2,102.0 -30.2,101.0" fill="#0f172a" fill-opacity="0.04"/><polygon points="29.3,100.5 30.2,101.0 30.2,102.0 29.3,102.6 28.4,102.0 28.4,101.0" fill="#ea580c" fill-opacity="0.04"/><polygon points="87.9,100.5 88.8,101.0 88.8,102.0 87.9,102.6 87.0,102.0 87.0,101.0" fill="#0f172a" fill-opacity="0.04"/><polygon points="146.5,100.5 147.4,101.0 147.4,102.0 146.5,102.6 145.6,102.0 145.6,101.0" fill="#0f172a" fill-opacity="0.04"/><polygon points="205.1,100.5 206.1,101.0 206.1,102.0 205.1,102.6 204.2,102.0 204.2,101.0" fill="#0f172a" fill-opacity="0.04"/><polygon points="263.8,100.5 264.7,101.0 264.7,102.0 263.8,102.6 262.8,102.0 262.8,101.0" fill="#0f172a" fill-opacity="0.04"/><polygon points="322.4,100.5 323.3,101.0 323.3,102.0 322.4,102.6 321.5,102.0 321.5,101.0" fill="#0f172a" fill-opacity="0.04"/><polygon points="381.0,100.5 381.9,101.0 381.9,102.0 381.0,102.6 380.1,102.0 380.1,101.0" fill="#0f172a" fill-opacity="0.04"/><polygon points="439.6,100.5 440.5,101.0 440.5,102.0 439.6,102.6 438.7,102.0 438.7,101.0" fill="#0f172a" fill-opacity="0.04"/><polygon points="498.2,100.5 499.1,101.0 499.1,102.0 498.2,102.6 497.3,102.0 497.3,101.0" fill="#0f172a" fill-opacity="0.04"/><polygon points="556.8,100.5 557.7,101.0 557.7,102.0 556.8,102.6 555.9,102.0 555.9,101.0" fill="#0f172a" fill-opacity="0.04"/><polygon points="615.4,100.5 616.3,101.0 616.3,102.0 615.4,102.6 614.5,102.0 614.5,101.0" fill="#0f172a" fill-opacity="0.04"/><polygon points="674.0,100.5 675.0,101.0 675.0,102.0 674.0,102.6 673.1,102.0 673.1,101.0" fill="#0f172a" fill-opacity="0.04"/><polygon points="732.7,100.5 733.6,101.0 733.6,102.0 732.7,102.6 731.7,102.0 731.7,101.0" fill="#0f172a" fill-opacity="0.04"/><polygon points="791.3,100.5 792.2,101.0 792.2,102.0 791.3,102.6 790.4,102.0 790.4,101.0" fill="#0f172a" fill-opacity="0.04"/><polygon points="849.9,100.5 850.8,101.0 850.8,102.0 849.9,102.6 849.0,102.0 849.0,101.0" fill="#0f172a" fill-opacity="0.04"/><polygon points="908.5,100.5 909.4,101.0 909.4,102.0 908.5,102.6 907.6,102.0 907.6,101.0" fill="#0f172a" fill-opacity="0.04"/><polygon points="967.1,100.5 968.0,101.0 968.0,102.0 967.1,102.6 966.2,102.0 966.2,101.0" fill="#0f172a" fill-opacity="0.04"/><polygon points="1025.7,100.5 1026.6,101.0 1026.6,102.0 1025.7,102.6 1024.8,102.0 1024.8,101.0" fill="#0f172a" fill-opacity="0.04"/><polygon points="1084.3,100.5 1085.2,101.0 1085.2,102.0 1084.3,102.6 1083.4,102.0 1083.4,101.0" fill="#0f172a" fill-opacity="0.04"/><polygon points="1142.9,100.5 1143.9,101.0 1143.9,102.0 1142.9,102.6 1142.0,102.0 1142.0,101.0" fill="#0f172a" fill-opacity="0.04"/><polygon points="1201.6,100.5 1202.5,101.0 1202.5,102.0 1201.6,102.6 1200.6,102.0 1200.6,101.0" fill="#0f172a" fill-opacity="0.04"/><polygon points="1260.2,100.5 1261.1,101.0 1261.1,102.0 1260.2,102.6 1259.3,102.0 1259.3,101.0" fill="#0f172a" fill-opacity="0.04"/><polygon points="1318.8,100.5 1319.7,101.0 1319.7,102.0 1318.8,102.6 1317.9,102.0 1317.9,101.0" fill="#0f172a" fill-opacity="0.04"/><polygon points="1377.4,100.5 1378.3,101.0 1378.3,102.0 1377.4,102.6 1376.5,102.0 1376.5,101.0" fill="#0f172a" fill-opacity="0.04"/><polygon points="1436.0,100.5 1436.9,101.0 1436.9,102.0 1436.0,102.6 1435.1,102.0 1435.1,101.0" fill="#0f172a" fill-opacity="0.04"/><polygon points="1494.6,100.5 1495.5,101.0 1495.5,102.0 1494.6,102.6 1493.7,102.0 1493.7,101.0" fill="#0f172a" fill-opacity="0.04"/><polygon points="1553.2,100.5 1554.1,101.0 1554.1,102.0 1553.2,102.6 1552.3,102.0 1552.3,101.0" fill="#0f172a" fill-opacity="0.04"/><polygon points="1611.8,100.5 1612.8,101.0 1612.8,102.0 1611.8,102.6 1610.9,102.0 1610.9,101.0" fill="#0f172a" fill-opacity="0.04"/><polygon points="-58.6,150.9 -57.4,151.6 -57.4,153.0 -58.6,153.6 -59.8,153.0 -59.8,151.6" fill="#0f172a" fill-opacity="0.04"/><polygon points="0.0,150.9 1.2,151.6 1.2,153.0 0.0,153.6 -1.2,153.0 -1.2,151.6" fill="#0f172a" fill-opacity="0.04"/><polygon points="58.6,150.9 59.8,151.6 59.8,153.0 58.6,153.6 57.4,153.0 57.4,151.6" fill="#0f172a" fill-opacity="0.04"/><polygon points="117.2,150.9 118.4,151.6 118.4,153.0 117.2,153.6 116.0,153.0 116.0,151.6" fill="#0f172a" fill-opacity="0.04"/><polygon points="175.8,150.9 177.0,151.6 177.0,153.0 175.8,153.6 174.7,153.0 174.7,151.6" fill="#0f172a" fill-opacity="0.04"/><polygon points="234.5,150.9 235.6,151.6 235.6,153.0 234.5,153.6 233.3,153.0 233.3,151.6" fill="#0f172a" fill-opacity="0.04"/><polygon points="293.1,150.9 294.2,151.6 294.2,153.0 293.1,153.6 291.9,153.0 291.9,151.6" fill="#0f172a" fill-opacity="0.04"/><polygon points="351.7,150.9 352.9,151.6 352.9,153.0 351.7,153.6 350.5,153.0 350.5,151.6" fill="#0f172a" fill-opacity="0.04"/><polygon points="410.3,150.9 411.5,151.6 411.5,153.0 410.3,153.6 409.1,153.0 409.1,151.6" fill="#0f172a" fill-opacity="0.04"/><polygon points="468.9,150.9 470.1,151.6 470.1,153.0 468.9,153.6 467.7,153.0 467.7,151.6" fill="#0f172a" fill-opacity="0.04"/><polygon points="527.5,150.9 528.7,151.6 528.7,153.0 527.5,153.6 526.3,153.0 526.3,151.6" fill="#0f172a" fill-opacity="0.04"/><polygon points="586.1,150.9 587.3,151.6 587.3,153.0 586.1,153.6 584.9,153.0 584.9,151.6" fill="#0f172a" fill-opacity="0.04"/><polygon points="644.7,150.9 645.9,151.6 645.9,153.0 644.7,153.6 643.6,153.0 643.6,151.6" fill="#0f172a" fill-opacity="0.04"/><polygon points="703.4,150.9 704.5,151.6 704.5,153.0 703.4,153.6 702.2,153.0 702.2,151.6" fill="#0f172a" fill-opacity="0.04"/><polygon points="762.0,150.9 763.1,151.6 763.1,153.0 762.0,153.6 760.8,153.0 760.8,151.6" fill="#0f172a" fill-opacity="0.04"/><polygon points="820.6,150.9 821.8,151.6 821.8,153.0 820.6,153.6 819.4,153.0 819.4,151.6" fill="#0f172a" fill-opacity="0.04"/><polygon points="879.2,150.9 880.4,151.6 880.4,153.0 879.2,153.6 878.0,153.0 878.0,151.6" fill="#0f172a" fill-opacity="0.04"/><polygon points="937.8,150.9 939.0,151.6 939.0,153.0 937.8,153.6 936.6,153.0 936.6,151.6" fill="#0f172a" fill-opacity="0.04"/><polygon points="996.4,150.9 997.6,151.6 997.6,153.0 996.4,153.6 995.2,153.0 995.2,151.6" fill="#0f172a" fill-opacity="0.04"/><polygon points="1055.0,150.9 1056.2,151.6 1056.2,153.0 1055.0,153.6 1053.8,153.0 1053.8,151.6" fill="#0f172a" fill-opacity="0.04"/><polygon points="1113.6,150.9 1114.8,151.6 1114.8,153.0 1113.6,153.6 1112.5,153.0 1112.5,151.6" fill="#0f172a" fill-opacity="0.04"/><polygon points="1172.3,150.9 1173.4,151.6 1173.4,153.0 1172.3,153.6 1171.1,153.0 1171.1,151.6" fill="#0f172a" fill-opacity="0.04"/><polygon points="1230.9,150.9 1232.0,151.6 1232.0,153.0 1230.9,153.6 1229.7,153.0 1229.7,151.6" fill="#0f172a" fill-opacity="0.04"/><polygon points="1289.5,150.9 1290.7,151.6 1290.7,153.0 1289.5,153.6 1288.3,153.0 1288.3,151.6" fill="#0f172a" fill-opacity="0.04"/><polygon points="1348.1,150.9 1349.3,151.6 1349.3,153.0 1348.1,153.6 1346.9,153.0 1346.9,151.6" fill="#0f172a" fill-opacity="0.04"/><polygon points="1406.7,150.9 1407.9,151.6 1407.9,153.0 1406.7,153.6 1405.5,153.0 1405.5,151.6" fill="#0f172a" fill-opacity="0.04"/><polygon points="1465.3,150.9 1466.5,151.6 1466.5,153.0 1465.3,153.6 1464.1,153.0 1464.1,151.6" fill="#0f172a" fill-opacity="0.04"/><polygon points="1523.9,150.9 1525.1,151.6 1525.1,153.0 1523.9,153.6 1522.7,153.0 1522.7,151.6" fill="#0f172a" fill-opacity="0.04"/><polygon points="1582.5,150.9 1583.7,151.6 1583.7,153.0 1582.5,153.6 1581.4,153.0 1581.4,151.6" fill="#0f172a" fill-opacity="0.04"/><polygon points="1641.2,150.9 1642.3,151.6 1642.3,153.0 1641.2,153.6 1640.0,153.0 1640.0,151.6" fill="#0f172a" fill-opacity="0.04"/><polygon points="-29.3,201.2 -27.7,202.1 -27.7,203.9 -29.3,204.8 -30.9,203.9 -30.9,202.1" fill="#0f172a" fill-opacity="0.04"/><polygon points="29.3,201.2 30.9,202.1 30.9,203.9 29.3,204.8 27.7,203.9 27.7,202.1" fill="#0f172a" fill-opacity="0.04"/><polygon points="87.9,201.2 89.5,202.1 89.5,203.9 87.9,204.8 86.4,203.9 86.4,202.1" fill="#0f172a" fill-opacity="0.04"/><polygon points="146.5,201.2 148.1,202.1 148.1,203.9 146.5,204.8 145.0,203.9 145.0,202.1" fill="#0f172a" fill-opacity="0.04"/><polygon points="205.1,201.2 206.7,202.1 206.7,203.9 205.1,204.8 203.6,203.9 203.6,202.1" fill="#0f172a" fill-opacity="0.04"/><polygon points="263.8,201.2 265.3,202.1 265.3,203.9 263.8,204.8 262.2,203.9 262.2,202.1" fill="#0f172a" fill-opacity="0.04"/><polygon points="322.4,201.2 323.9,202.1 323.9,203.9 322.4,204.8 320.8,203.9 320.8,202.1" fill="#0f172a" fill-opacity="0.04"/><polygon points="381.0,201.2 382.5,202.1 382.5,203.9 381.0,204.8 379.4,203.9 379.4,202.1" fill="#0f172a" fill-opacity="0.04"/><polygon points="439.6,201.2 441.2,202.1 441.2,203.9 439.6,204.8 438.0,203.9 438.0,202.1" fill="#0f172a" fill-opacity="0.04"/><polygon points="498.2,201.2 499.8,202.1 499.8,203.9 498.2,204.8 496.6,203.9 496.6,202.1" fill="#0f172a" fill-opacity="0.04"/><polygon points="556.8,201.2 558.4,202.1 558.4,203.9 556.8,204.8 555.3,203.9 555.3,202.1" fill="#0f172a" fill-opacity="0.04"/><polygon points="615.4,201.2 617.0,202.1 617.0,203.9 615.4,204.8 613.9,203.9 613.9,202.1" fill="#0f172a" fill-opacity="0.04"/><polygon points="674.0,201.2 675.6,202.1 675.6,203.9 674.0,204.8 672.5,203.9 672.5,202.1" fill="#0f172a" fill-opacity="0.04"/><polygon points="732.7,201.2 734.2,202.1 734.2,203.9 732.7,204.8 731.1,203.9 731.1,202.1" fill="#0f172a" fill-opacity="0.04"/><polygon points="791.3,201.2 792.8,202.1 792.8,203.9 791.3,204.8 789.7,203.9 789.7,202.1" fill="#0f172a" fill-opacity="0.04"/><polygon points="849.9,201.2 851.4,202.1 851.4,203.9 849.9,204.8 848.3,203.9 848.3,202.1" fill="#0f172a" fill-opacity="0.04"/><polygon points="908.5,201.2 910.1,202.1 910.1,203.9 908.5,204.8 906.9,203.9 906.9,202.1" fill="#0f172a" fill-opacity="0.04"/><polygon points="967.1,201.2 968.7,202.1 968.7,203.9 967.1,204.8 965.5,203.9 965.5,202.1" fill="#0f172a" fill-opacity="0.04"/><polygon points="1025.7,201.2 1027.3,202.1 1027.3,203.9 1025.7,204.8 1024.2,203.9 1024.2,202.1" fill="#0f172a" fill-opacity="0.04"/><polygon points="1084.3,201.2 1085.9,202.1 1085.9,203.9 1084.3,204.8 1082.8,203.9 1082.8,202.1" fill="#0f172a" fill-opacity="0.04"/><polygon points="1142.9,201.2 1144.5,202.1 1144.5,203.9 1142.9,204.8 1141.4,203.9 1141.4,202.1" fill="#0f172a" fill-opacity="0.04"/><polygon points="1201.6,201.2 1203.1,202.1 1203.1,203.9 1201.6,204.8 1200.0,203.9 1200.0,202.1" fill="#0f172a" fill-opacity="0.04"/><polygon points="1260.2,201.2 1261.7,202.1 1261.7,203.9 1260.2,204.8 1258.6,203.9 1258.6,202.1" fill="#0f172a" fill-opacity="0.04"/><polygon points="1318.8,201.2 1320.3,202.1 1320.3,203.9 1318.8,204.8 1317.2,203.9 1317.2,202.1" fill="#0f172a" fill-opacity="0.04"/><polygon points="1377.4,201.2 1379.0,202.1 1379.0,203.9 1377.4,204.8 1375.8,203.9 1375.8,202.1" fill="#0f172a" fill-opacity="0.04"/><polygon points="1436.0,201.2 1437.6,202.1 1437.6,203.9 1436.0,204.8 1434.4,203.9 1434.4,202.1" fill="#0f172a" fill-opacity="0.04"/><polygon points="1494.6,201.2 1496.2,202.1 1496.2,203.9 1494.6,204.8 1493.1,203.9 1493.1,202.1" fill="#0f172a" fill-opacity="0.04"/><polygon points="1553.2,201.2 1554.8,202.1 1554.8,203.9 1553.2,204.8 1551.7,203.9 1551.7,202.1" fill="#0f172a" fill-opacity="0.04"/><polygon points="1611.8,201.2 1613.4,202.1 1613.4,203.9 1611.8,204.8 1610.3,203.9 1610.3,202.1" fill="#0f172a" fill-opacity="0.04"/><polygon points="-58.6,251.4 -56.6,252.6 -56.6,255.0 -58.6,256.2 -60.7,255.0 -60.7,252.6" fill="#0f172a" fill-opacity="0.04"/><polygon points="0.0,251.4 2.1,252.6 2.1,255.0 0.0,256.2 -2.1,255.0 -2.1,252.6" fill="#0f172a" fill-opacity="0.04"/><polygon points="58.6,251.4 60.7,252.6 60.7,255.0 58.6,256.2 56.6,255.0 56.6,252.6" fill="#0f172a" fill-opacity="0.04"/><polygon points="117.2,251.4 119.3,252.6 119.3,255.0 117.2,256.2 115.2,255.0 115.2,252.6" fill="#0f172a" fill-opacity="0.04"/><polygon points="175.8,251.4 177.9,252.6 177.9,255.0 175.8,256.2 173.8,255.0 173.8,252.6" fill="#0f172a" fill-opacity="0.04"/><polygon points="234.5,251.4 236.5,252.6 236.5,255.0 234.5,256.2 232.4,255.0 232.4,252.6" fill="#0f172a" fill-opacity="0.04"/><polygon points="293.1,251.4 295.1,252.6 295.1,255.0 293.1,256.2 291.0,255.0 291.0,252.6" fill="#0f172a" fill-opacity="0.04"/><polygon points="351.7,251.4 353.7,252.6 353.7,255.0 351.7,256.2 349.6,255.0 349.6,252.6" fill="#0f172a" fill-opacity="0.04"/><polygon points="410.3,251.4 412.3,252.6 412.3,255.0 410.3,256.2 408.2,255.0 408.2,252.6" fill="#0f172a" fill-opacity="0.04"/><polygon points="468.9,251.4 471.0,252.6 471.0,255.0 468.9,256.2 466.8,255.0 466.8,252.6" fill="#ea580c" fill-opacity="0.04"/><polygon points="527.5,251.4 529.6,252.6 529.6,255.0 527.5,256.2 525.5,255.0 525.5,252.6" fill="#0f172a" fill-opacity="0.04"/><polygon points="586.1,251.4 588.2,252.6 588.2,255.0 586.1,256.2 584.1,255.0 584.1,252.6" fill="#0f172a" fill-opacity="0.04"/><polygon points="644.7,251.4 646.8,252.6 646.8,255.0 644.7,256.2 642.7,255.0 642.7,252.6" fill="#0f172a" fill-opacity="0.04"/><polygon points="703.4,251.4 705.4,252.6 705.4,255.0 703.4,256.2 701.3,255.0 701.3,252.6" fill="#0f172a" fill-opacity="0.04"/><polygon points="762.0,251.4 764.0,252.6 764.0,255.0 762.0,256.2 759.9,255.0 759.9,252.6" fill="#0f172a" fill-opacity="0.04"/><polygon points="820.6,251.4 822.6,252.6 822.6,255.0 820.6,256.2 818.5,255.0 818.5,252.6" fill="#0f172a" fill-opacity="0.04"/><polygon points="879.2,251.4 881.2,252.6 881.2,255.0 879.2,256.2 877.1,255.0 877.1,252.6" fill="#0f172a" fill-opacity="0.04"/><polygon points="937.8,251.4 939.9,252.6 939.9,255.0 937.8,256.2 935.7,255.0 935.7,252.6" fill="#0f172a" fill-opacity="0.04"/><polygon points="996.4,251.4 998.5,252.6 998.5,255.0 996.4,256.2 994.4,255.0 994.4,252.6" fill="#0f172a" fill-opacity="0.04"/><polygon points="1055.0,251.4 1057.1,252.6 1057.1,255.0 1055.0,256.2 1053.0,255.0 1053.0,252.6" fill="#0f172a" fill-opacity="0.04"/><polygon points="1113.6,251.4 1115.7,252.6 1115.7,255.0 1113.6,256.2 1111.6,255.0 1111.6,252.6" fill="#0f172a" fill-opacity="0.04"/><polygon points="1172.3,251.4 1174.3,252.6 1174.3,255.0 1172.3,256.2 1170.2,255.0 1170.2,252.6" fill="#0f172a" fill-opacity="0.04"/><polygon points="1230.9,251.4 1232.9,252.6 1232.9,255.0 1230.9,256.2 1228.8,255.0 1228.8,252.6" fill="#0f172a" fill-opacity="0.04"/><polygon points="1289.5,251.4 1291.5,252.6 1291.5,255.0 1289.5,256.2 1287.4,255.0 1287.4,252.6" fill="#0f172a" fill-opacity="0.04"/><polygon points="1348.1,251.4 1350.1,252.6 1350.1,255.0 1348.1,256.2 1346.0,255.0 1346.0,252.6" fill="#0f172a" fill-opacity="0.04"/><polygon points="1406.7,251.4 1408.8,252.6 1408.8,255.0 1406.7,256.2 1404.6,255.0 1404.6,252.6" fill="#0f172a" fill-opacity="0.04"/><polygon points="1465.3,251.4 1467.4,252.6 1467.4,255.0 1465.3,256.2 1463.3,255.0 1463.3,252.6" fill="#0f172a" fill-opacity="0.04"/><polygon points="1523.9,251.4 1526.0,252.6 1526.0,255.0 1523.9,256.2 1521.9,255.0 1521.9,252.6" fill="#0f172a" fill-opacity="0.04"/><polygon points="1582.5,251.4 1584.6,252.6 1584.6,255.0 1582.5,256.2 1580.5,255.0 1580.5,252.6" fill="#0f172a" fill-opacity="0.04"/><polygon points="1641.2,251.4 1643.2,252.6 1643.2,255.0 1641.2,256.2 1639.1,255.0 1639.1,252.6" fill="#0f172a" fill-opacity="0.04"/><polygon points="-29.3,301.5 -26.6,303.0 -26.6,306.1 -29.3,307.6 -32.0,306.1 -32.0,303.0" fill="#0f172a" fill-opacity="0.05"/><polygon points="29.3,301.5 32.0,303.0 32.0,306.1 29.3,307.6 26.6,306.1 26.6,303.0" fill="#0f172a" fill-opacity="0.05"/><polygon points="87.9,301.5 90.6,303.0 90.6,306.1 87.9,307.6 85.3,306.1 85.3,303.0" fill="#0f172a" fill-opacity="0.05"/><polygon points="146.5,301.5 149.2,303.0 149.2,306.1 146.5,307.6 143.9,306.1 143.9,303.0" fill="#0f172a" fill-opacity="0.05"/><polygon points="205.1,301.5 207.8,303.0 207.8,306.1 205.1,307.6 202.5,306.1 202.5,303.0" fill="#0f172a" fill-opacity="0.05"/><polygon points="263.8,301.5 266.4,303.0 266.4,306.1 263.8,307.6 261.1,306.1 261.1,303.0" fill="#0f172a" fill-opacity="0.05"/><polygon points="322.4,301.5 325.0,303.0 325.0,306.1 322.4,307.6 319.7,306.1 319.7,303.0" fill="#0f172a" fill-opacity="0.05"/><polygon points="381.0,301.5 383.6,303.0 383.6,306.1 381.0,307.6 378.3,306.1 378.3,303.0" fill="#0f172a" fill-opacity="0.05"/><polygon points="439.6,301.5 442.3,303.0 442.3,306.1 439.6,307.6 436.9,306.1 436.9,303.0" fill="#0f172a" fill-opacity="0.05"/><polygon points="498.2,301.5 500.9,303.0 500.9,306.1 498.2,307.6 495.6,306.1 495.6,303.0" fill="#0f172a" fill-opacity="0.05"/><polygon points="556.8,301.5 559.5,303.0 559.5,306.1 556.8,307.6 554.2,306.1 554.2,303.0" fill="#0f172a" fill-opacity="0.05"/><polygon points="615.4,301.5 618.1,303.0 618.1,306.1 615.4,307.6 612.8,306.1 612.8,303.0" fill="#0f172a" fill-opacity="0.05"/><polygon points="674.0,301.5 676.7,303.0 676.7,306.1 674.0,307.6 671.4,306.1 671.4,303.0" fill="#0f172a" fill-opacity="0.05"/><polygon points="732.7,301.5 735.3,303.0 735.3,306.1 732.7,307.6 730.0,306.1 730.0,303.0" fill="#0f172a" fill-opacity="0.05"/><polygon points="791.3,301.5 793.9,303.0 793.9,306.1 791.3,307.6 788.6,306.1 788.6,303.0" fill="#0f172a" fill-opacity="0.05"/><polygon points="849.9,301.5 852.5,303.0 852.5,306.1 849.9,307.6 847.2,306.1 847.2,303.0" fill="#0f172a" fill-opacity="0.05"/><polygon points="908.5,301.5 911.2,303.0 911.2,306.1 908.5,307.6 905.8,306.1 905.8,303.0" fill="#0f172a" fill-opacity="0.05"/><polygon points="967.1,301.5 969.8,303.0 969.8,306.1 967.1,307.6 964.5,306.1 964.5,303.0" fill="#0f172a" fill-opacity="0.05"/><polygon points="1025.7,301.5 1028.4,303.0 1028.4,306.1 1025.7,307.6 1023.1,306.1 1023.1,303.0" fill="#0f172a" fill-opacity="0.05"/><polygon points="1084.3,301.5 1087.0,303.0 1087.0,306.1 1084.3,307.6 1081.7,306.1 1081.7,303.0" fill="#0f172a" fill-opacity="0.05"/><polygon points="1142.9,301.5 1145.6,303.0 1145.6,306.1 1142.9,307.6 1140.3,306.1 1140.3,303.0" fill="#0f172a" fill-opacity="0.05"/><polygon points="1201.6,301.5 1204.2,303.0 1204.2,306.1 1201.6,307.6 1198.9,306.1 1198.9,303.0" fill="#0f172a" fill-opacity="0.05"/><polygon points="1260.2,301.5 1262.8,303.0 1262.8,306.1 1260.2,307.6 1257.5,306.1 1257.5,303.0" fill="#0f172a" fill-opacity="0.05"/><polygon points="1318.8,301.5 1321.4,303.0 1321.4,306.1 1318.8,307.6 1316.1,306.1 1316.1,303.0" fill="#0f172a" fill-opacity="0.05"/><polygon points="1377.4,301.5 1380.1,303.0 1380.1,306.1 1377.4,307.6 1374.7,306.1 1374.7,303.0" fill="#0f172a" fill-opacity="0.05"/><polygon points="1436.0,301.5 1438.7,303.0 1438.7,306.1 1436.0,307.6 1433.4,306.1 1433.4,303.0" fill="#0f172a" fill-opacity="0.05"/><polygon points="1494.6,301.5 1497.3,303.0 1497.3,306.1 1494.6,307.6 1492.0,306.1 1492.0,303.0" fill="#0f172a" fill-opacity="0.05"/><polygon points="1553.2,301.5 1555.9,303.0 1555.9,306.1 1553.2,307.6 1550.6,306.1 1550.6,303.0" fill="#0f172a" fill-opacity="0.05"/><polygon points="1611.8,301.5 1614.5,303.0 1614.5,306.1 1611.8,307.6 1609.2,306.1 1609.2,303.0" fill="#0f172a" fill-opacity="0.05"/><polygon points="-58.6,351.4 -55.2,353.4 -55.2,357.3 -58.6,359.2 -62.0,357.3 -62.0,353.4" fill="#0f172a" fill-opacity="0.05"/><polygon points="0.0,351.4 3.4,353.4 3.4,357.3 0.0,359.2 -3.4,357.3 -3.4,353.4" fill="#0f172a" fill-opacity="0.05"/><polygon points="58.6,351.4 62.0,353.4 62.0,357.3 58.6,359.2 55.2,357.3 55.2,353.4" fill="#0f172a" fill-opacity="0.05"/><polygon points="117.2,351.4 120.6,353.4 120.6,357.3 117.2,359.2 113.9,357.3 113.9,353.4" fill="#0f172a" fill-opacity="0.05"/><polygon points="175.8,351.4 179.2,353.4 179.2,357.3 175.8,359.2 172.5,357.3 172.5,353.4" fill="#0f172a" fill-opacity="0.05"/><polygon points="234.5,351.4 237.8,353.4 237.8,357.3 234.5,359.2 231.1,357.3 231.1,353.4" fill="#0f172a" fill-opacity="0.05"/><polygon points="293.1,351.4 296.4,353.4 296.4,357.3 293.1,359.2 289.7,357.3 289.7,353.4" fill="#0f172a" fill-opacity="0.05"/><polygon points="351.7,351.4 355.0,353.4 355.0,357.3 351.7,359.2 348.3,357.3 348.3,353.4" fill="#0f172a" fill-opacity="0.05"/><polygon points="410.3,351.4 413.7,353.4 413.7,357.3 410.3,359.2 406.9,357.3 406.9,353.4" fill="#0f172a" fill-opacity="0.05"/><polygon points="468.9,351.4 472.3,353.4 472.3,357.3 468.9,359.2 465.5,357.3 465.5,353.4" fill="#0f172a" fill-opacity="0.05"/><polygon points="527.5,351.4 530.9,353.4 530.9,357.3 527.5,359.2 524.1,357.3 524.1,353.4" fill="#0f172a" fill-opacity="0.05"/><polygon points="586.1,351.4 589.5,353.4 589.5,357.3 586.1,359.2 582.8,357.3 582.8,353.4" fill="#0f172a" fill-opacity="0.05"/><polygon points="644.7,351.4 648.1,353.4 648.1,357.3 644.7,359.2 641.4,357.3 641.4,353.4" fill="#0f172a" fill-opacity="0.05"/><polygon points="703.4,351.4 706.7,353.4 706.7,357.3 703.4,359.2 700.0,357.3 700.0,353.4" fill="#0f172a" fill-opacity="0.05"/><polygon points="762.0,351.4 765.3,353.4 765.3,357.3 762.0,359.2 758.6,357.3 758.6,353.4" fill="#0f172a" fill-opacity="0.05"/><polygon points="820.6,351.4 823.9,353.4 823.9,357.3 820.6,359.2 817.2,357.3 817.2,353.4" fill="#0f172a" fill-opacity="0.05"/><polygon points="879.2,351.4 882.6,353.4 882.6,357.3 879.2,359.2 875.8,357.3 875.8,353.4" fill="#0f172a" fill-opacity="0.05"/><polygon points="937.8,351.4 941.2,353.4 941.2,357.3 937.8,359.2 934.4,357.3 934.4,353.4" fill="#0f172a" fill-opacity="0.05"/><polygon points="996.4,351.4 999.8,353.4 999.8,357.3 996.4,359.2 993.0,357.3 993.0,353.4" fill="#0f172a" fill-opacity="0.05"/><polygon points="1055.0,351.4 1058.4,353.4 1058.4,357.3 1055.0,359.2 1051.7,357.3 1051.7,353.4" fill="#0f172a" fill-opacity="0.05"/><polygon points="1113.6,351.4 1117.0,353.4 1117.0,357.3 1113.6,359.2 1110.3,357.3 1110.3,353.4" fill="#0f172a" fill-opacity="0.05"/><polygon points="1172.3,351.4 1175.6,353.4 1175.6,357.3 1172.3,359.2 1168.9,357.3 1168.9,353.4" fill="#0f172a" fill-opacity="0.05"/><polygon points="1230.9,351.4 1234.2,353.4 1234.2,357.3 1230.9,359.2 1227.5,357.3 1227.5,353.4" fill="#0f172a" fill-opacity="0.05"/><polygon points="1289.5,351.4 1292.8,353.4 1292.8,357.3 1289.5,359.2 1286.1,357.3 1286.1,353.4" fill="#0f172a" fill-opacity="0.05"/><polygon points="1348.1,351.4 1351.5,353.4 1351.5,357.3 1348.1,359.2 1344.7,357.3 1344.7,353.4" fill="#0f172a" fill-opacity="0.05"/><polygon points="1406.7,351.4 1410.1,353.4 1410.1,357.3 1406.7,359.2 1403.3,357.3 1403.3,353.4" fill="#0f172a" fill-opacity="0.05"/><polygon points="1465.3,351.4 1468.7,353.4 1468.7,357.3 1465.3,359.2 1461.9,357.3 1461.9,353.4" fill="#0f172a" fill-opacity="0.05"/><polygon points="1523.9,351.4 1527.3,353.4 1527.3,357.3 1523.9,359.2 1520.6,357.3 1520.6,353.4" fill="#0f172a" fill-opacity="0.05"/><polygon points="1582.5,351.4 1585.9,353.4 1585.9,357.3 1582.5,359.2 1579.2,357.3 1579.2,353.4" fill="#0f172a" fill-opacity="0.05"/><polygon points="1641.2,351.4 1644.5,353.4 1644.5,357.3 1641.2,359.2 1637.8,357.3 1637.8,353.4" fill="#0f172a" fill-opacity="0.05"/><polygon points="-29.3,401.2 -25.1,403.7 -25.1,408.5 -29.3,410.9 -33.5,408.5 -33.5,403.7" fill="#0f172a" fill-opacity="0.05"/><polygon points="29.3,401.2 33.5,403.7 33.5,408.5 29.3,410.9 25.1,408.5 25.1,403.7" fill="#0f172a" fill-opacity="0.05"/><polygon points="87.9,401.2 92.1,403.7 92.1,408.5 87.9,410.9 83.7,408.5 83.7,403.7" fill="#0f172a" fill-opacity="0.05"/><polygon points="146.5,401.2 150.7,403.7 150.7,408.5 146.5,410.9 142.3,408.5 142.3,403.7" fill="#0f172a" fill-opacity="0.05"/><polygon points="205.1,401.2 209.3,403.7 209.3,408.5 205.1,410.9 201.0,408.5 201.0,403.7" fill="#0f172a" fill-opacity="0.05"/><polygon points="263.8,401.2 267.9,403.7 267.9,408.5 263.8,410.9 259.6,408.5 259.6,403.7" fill="#0f172a" fill-opacity="0.05"/><polygon points="322.4,401.2 326.6,403.7 326.6,408.5 322.4,410.9 318.2,408.5 318.2,403.7" fill="#0f172a" fill-opacity="0.05"/><polygon points="381.0,401.2 385.2,403.7 385.2,408.5 381.0,410.9 376.8,408.5 376.8,403.7" fill="#0f172a" fill-opacity="0.05"/><polygon points="439.6,401.2 443.8,403.7 443.8,408.5 439.6,410.9 435.4,408.5 435.4,403.7" fill="#0f172a" fill-opacity="0.05"/><polygon points="498.2,401.2 502.4,403.7 502.4,408.5 498.2,410.9 494.0,408.5 494.0,403.7" fill="#0f172a" fill-opacity="0.05"/><polygon points="556.8,401.2 561.0,403.7 561.0,408.5 556.8,410.9 552.6,408.5 552.6,403.7" fill="#0f172a" fill-opacity="0.05"/><polygon points="615.4,401.2 619.6,403.7 619.6,408.5 615.4,410.9 611.2,408.5 611.2,403.7" fill="#0f172a" fill-opacity="0.05"/><polygon points="674.0,401.2 678.2,403.7 678.2,408.5 674.0,410.9 669.9,408.5 669.9,403.7" fill="#0f172a" fill-opacity="0.05"/><polygon points="732.7,401.2 736.8,403.7 736.8,408.5 732.7,410.9 728.5,408.5 728.5,403.7" fill="#0f172a" fill-opacity="0.05"/><polygon points="791.3,401.2 795.5,403.7 795.5,408.5 791.3,410.9 787.1,408.5 787.1,403.7" fill="#0f172a" fill-opacity="0.05"/><polygon points="849.9,401.2 854.1,403.7 854.1,408.5 849.9,410.9 845.7,408.5 845.7,403.7" fill="#0f172a" fill-opacity="0.05"/><polygon points="908.5,401.2 912.7,403.7 912.7,408.5 908.5,410.9 904.3,408.5 904.3,403.7" fill="#0f172a" fill-opacity="0.05"/><polygon points="967.1,401.2 971.3,403.7 971.3,408.5 967.1,410.9 962.9,408.5 962.9,403.7" fill="#0f172a" fill-opacity="0.05"/><polygon points="1025.7,401.2 1029.9,403.7 1029.9,408.5 1025.7,410.9 1021.5,408.5 1021.5,403.7" fill="#0f172a" fill-opacity="0.05"/><polygon points="1084.3,401.2 1088.5,403.7 1088.5,408.5 1084.3,410.9 1080.1,408.5 1080.1,403.7" fill="#0f172a" fill-opacity="0.05"/><polygon points="1142.9,401.2 1147.1,403.7 1147.1,408.5 1142.9,410.9 1138.8,408.5 1138.8,403.7" fill="#0f172a" fill-opacity="0.05"/><polygon points="1201.6,401.2 1205.7,403.7 1205.7,408.5 1201.6,410.9 1197.4,408.5 1197.4,403.7" fill="#0f172a" fill-opacity="0.05"/><polygon points="1260.2,401.2 1264.4,403.7 1264.4,408.5 1260.2,410.9 1256.0,408.5 1256.0,403.7" fill="#0f172a" fill-opacity="0.05"/><polygon points="1318.8,401.2 1323.0,403.7 1323.0,408.5 1318.8,410.9 1314.6,408.5 1314.6,403.7" fill="#0f172a" fill-opacity="0.05"/><polygon points="1377.4,401.2 1381.6,403.7 1381.6,408.5 1377.4,410.9 1373.2,408.5 1373.2,403.7" fill="#0f172a" fill-opacity="0.05"/><polygon points="1436.0,401.2 1440.2,403.7 1440.2,408.5 1436.0,410.9 1431.8,408.5 1431.8,403.7" fill="#0f172a" fill-opacity="0.05"/><polygon points="1494.6,401.2 1498.8,403.7 1498.8,408.5 1494.6,410.9 1490.4,408.5 1490.4,403.7" fill="#0f172a" fill-opacity="0.05"/><polygon points="1553.2,401.2 1557.4,403.7 1557.4,408.5 1553.2,410.9 1549.1,408.5 1549.1,403.7" fill="#0f172a" fill-opacity="0.05"/><polygon points="1611.8,401.2 1616.0,403.7 1616.0,408.5 1611.8,410.9 1607.7,408.5 1607.7,403.7" fill="#0f172a" fill-opacity="0.05"/><polygon points="-58.6,450.9 -53.5,453.9 -53.5,459.8 -58.6,462.7 -63.7,459.8 -63.7,453.9" fill="#0f172a" fill-opacity="0.05"/><polygon points="0.0,450.9 5.1,453.9 5.1,459.8 0.0,462.7 -5.1,459.8 -5.1,453.9" fill="#0f172a" fill-opacity="0.05"/><polygon points="58.6,450.9 63.7,453.9 63.7,459.8 58.6,462.7 53.5,459.8 53.5,453.9" fill="#0f172a" fill-opacity="0.05"/><polygon points="117.2,450.9 122.3,453.9 122.3,459.8 117.2,462.7 112.1,459.8 112.1,453.9" fill="#0f172a" fill-opacity="0.05"/><polygon points="175.8,450.9 180.9,453.9 180.9,459.8 175.8,462.7 170.7,459.8 170.7,453.9" fill="#0f172a" fill-opacity="0.05"/><polygon points="234.5,450.9 239.6,453.9 239.6,459.8 234.5,462.7 229.3,459.8 229.3,453.9" fill="#0f172a" fill-opacity="0.05"/><polygon points="293.1,450.9 298.2,453.9 298.2,459.8 293.1,462.7 288.0,459.8 288.0,453.9" fill="#0f172a" fill-opacity="0.05"/><polygon points="351.7,450.9 356.8,453.9 356.8,459.8 351.7,462.7 346.6,459.8 346.6,453.9" fill="#0f172a" fill-opacity="0.05"/><polygon points="410.3,450.9 415.4,453.9 415.4,459.8 410.3,462.7 405.2,459.8 405.2,453.9" fill="#0f172a" fill-opacity="0.05"/><polygon points="468.9,450.9 474.0,453.9 474.0,459.8 468.9,462.7 463.8,459.8 463.8,453.9" fill="#0f172a" fill-opacity="0.05"/><polygon points="527.5,450.9 532.6,453.9 532.6,459.8 527.5,462.7 522.4,459.8 522.4,453.9" fill="#0f172a" fill-opacity="0.05"/><polygon points="586.1,450.9 591.2,453.9 591.2,459.8 586.1,462.7 581.0,459.8 581.0,453.9" fill="#0f172a" fill-opacity="0.05"/><polygon points="644.7,450.9 649.8,453.9 649.8,459.8 644.7,462.7 639.6,459.8 639.6,453.9" fill="#0f172a" fill-opacity="0.05"/><polygon points="703.4,450.9 708.5,453.9 708.5,459.8 703.4,462.7 698.2,459.8 698.2,453.9" fill="#0f172a" fill-opacity="0.05"/><polygon points="762.0,450.9 767.1,453.9 767.1,459.8 762.0,462.7 756.9,459.8 756.9,453.9" fill="#0f172a" fill-opacity="0.05"/><polygon points="820.6,450.9 825.7,453.9 825.7,459.8 820.6,462.7 815.5,459.8 815.5,453.9" fill="#0f172a" fill-opacity="0.05"/><polygon points="879.2,450.9 884.3,453.9 884.3,459.8 879.2,462.7 874.1,459.8 874.1,453.9" fill="#0f172a" fill-opacity="0.05"/><polygon points="937.8,450.9 942.9,453.9 942.9,459.8 937.8,462.7 932.7,459.8 932.7,453.9" fill="#0f172a" fill-opacity="0.05"/><polygon points="996.4,450.9 1001.5,453.9 1001.5,459.8 996.4,462.7 991.3,459.8 991.3,453.9" fill="#0f172a" fill-opacity="0.05"/><polygon points="1055.0,450.9 1060.1,453.9 1060.1,459.8 1055.0,462.7 1049.9,459.8 1049.9,453.9" fill="#0f172a" fill-opacity="0.05"/><polygon points="1113.6,450.9 1118.8,453.9 1118.8,459.8 1113.6,462.7 1108.5,459.8 1108.5,453.9" fill="#0f172a" fill-opacity="0.05"/><polygon points="1172.3,450.9 1177.4,453.9 1177.4,459.8 1172.3,462.7 1167.1,459.8 1167.1,453.9" fill="#0f172a" fill-opacity="0.05"/><polygon points="1230.9,450.9 1236.0,453.9 1236.0,459.8 1230.9,462.7 1225.8,459.8 1225.8,453.9" fill="#0f172a" fill-opacity="0.05"/><polygon points="1289.5,450.9 1294.6,453.9 1294.6,459.8 1289.5,462.7 1284.4,459.8 1284.4,453.9" fill="#0f172a" fill-opacity="0.05"/><polygon points="1348.1,450.9 1353.2,453.9 1353.2,459.8 1348.1,462.7 1343.0,459.8 1343.0,453.9" fill="#0f172a" fill-opacity="0.05"/><polygon points="1406.7,450.9 1411.8,453.9 1411.8,459.8 1406.7,462.7 1401.6,459.8 1401.6,453.9" fill="#0f172a" fill-opacity="0.05"/><polygon points="1465.3,450.9 1470.4,453.9 1470.4,459.8 1465.3,462.7 1460.2,459.8 1460.2,453.9" fill="#0f172a" fill-opacity="0.05"/><polygon points="1523.9,450.9 1529.0,453.9 1529.0,459.8 1523.9,462.7 1518.8,459.8 1518.8,453.9" fill="#0f172a" fill-opacity="0.05"/><polygon points="1582.5,450.9 1587.7,453.9 1587.7,459.8 1582.5,462.7 1577.4,459.8 1577.4,453.9" fill="#0f172a" fill-opacity="0.05"/><polygon points="1641.2,450.9 1646.3,453.9 1646.3,459.8 1641.2,462.7 1636.0,459.8 1636.0,453.9" fill="#0f172a" fill-opacity="0.05"/><polygon points="-29.3,500.5 -23.2,504.1 -23.2,511.1 -29.3,514.7 -35.5,511.1 -35.5,504.1" fill="#0f172a" fill-opacity="0.06"/><polygon points="29.3,500.5 35.5,504.1 35.5,511.1 29.3,514.7 23.2,511.1 23.2,504.1" fill="#0f172a" fill-opacity="0.06"/><polygon points="87.9,500.5 94.1,504.1 94.1,511.1 87.9,514.7 81.8,511.1 81.8,504.1" fill="#0f172a" fill-opacity="0.06"/><polygon points="146.5,500.5 152.7,504.1 152.7,511.1 146.5,514.7 140.4,511.1 140.4,504.1" fill="#0f172a" fill-opacity="0.06"/><polygon points="205.1,500.5 211.3,504.1 211.3,511.1 205.1,514.7 199.0,511.1 199.0,504.1" fill="#0f172a" fill-opacity="0.06"/><polygon points="263.8,500.5 269.9,504.1 269.9,511.1 263.8,514.7 257.6,511.1 257.6,504.1" fill="#0f172a" fill-opacity="0.06"/><polygon points="322.4,500.5 328.5,504.1 328.5,511.1 322.4,514.7 316.2,511.1 316.2,504.1" fill="#0f172a" fill-opacity="0.06"/><polygon points="381.0,500.5 387.1,504.1 387.1,511.1 381.0,514.7 374.8,511.1 374.8,504.1" fill="#0f172a" fill-opacity="0.06"/><polygon points="439.6,500.5 445.7,504.1 445.7,511.1 439.6,514.7 433.4,511.1 433.4,504.1" fill="#0f172a" fill-opacity="0.06"/><polygon points="498.2,500.5 504.4,504.1 504.4,511.1 498.2,514.7 492.1,511.1 492.1,504.1" fill="#0f172a" fill-opacity="0.06"/><polygon points="556.8,500.5 563.0,504.1 563.0,511.1 556.8,514.7 550.7,511.1 550.7,504.1" fill="#0f172a" fill-opacity="0.06"/><polygon points="615.4,500.5 621.6,504.1 621.6,511.1 615.4,514.7 609.3,511.1 609.3,504.1" fill="#0f172a" fill-opacity="0.06"/><polygon points="674.0,500.5 680.2,504.1 680.2,511.1 674.0,514.7 667.9,511.1 667.9,504.1" fill="#0f172a" fill-opacity="0.06"/><polygon points="732.7,500.5 738.8,504.1 738.8,511.1 732.7,514.7 726.5,511.1 726.5,504.1" fill="#0f172a" fill-opacity="0.06"/><polygon points="791.3,500.5 797.4,504.1 797.4,511.1 791.3,514.7 785.1,511.1 785.1,504.1" fill="#0f172a" fill-opacity="0.06"/><polygon points="849.9,500.5 856.0,504.1 856.0,511.1 849.9,514.7 843.7,511.1 843.7,504.1" fill="#0f172a" fill-opacity="0.06"/><polygon points="908.5,500.5 914.6,504.1 914.6,511.1 908.5,514.7 902.3,511.1 902.3,504.1" fill="#0f172a" fill-opacity="0.06"/><polygon points="967.1,500.5 973.3,504.1 973.3,511.1 967.1,514.7 961.0,511.1 961.0,504.1" fill="#0f172a" fill-opacity="0.06"/><polygon points="1025.7,500.5 1031.9,504.1 1031.9,511.1 1025.7,514.7 1019.6,511.1 1019.6,504.1" fill="#0f172a" fill-opacity="0.06"/><polygon points="1084.3,500.5 1090.5,504.1 1090.5,511.1 1084.3,514.7 1078.2,511.1 1078.2,504.1" fill="#0f172a" fill-opacity="0.06"/><polygon points="1142.9,500.5 1149.1,504.1 1149.1,511.1 1142.9,514.7 1136.8,511.1 1136.8,504.1" fill="#0f172a" fill-opacity="0.06"/><polygon points="1201.6,500.5 1207.7,504.1 1207.7,511.1 1201.6,514.7 1195.4,511.1 1195.4,504.1" fill="#0f172a" fill-opacity="0.06"/><polygon points="1260.2,500.5 1266.3,504.1 1266.3,511.1 1260.2,514.7 1254.0,511.1 1254.0,504.1" fill="#0f172a" fill-opacity="0.06"/><polygon points="1318.8,500.5 1324.9,504.1 1324.9,511.1 1318.8,514.7 1312.6,511.1 1312.6,504.1" fill="#0f172a" fill-opacity="0.06"/><polygon points="1377.4,500.5 1383.5,504.1 1383.5,511.1 1377.4,514.7 1371.2,511.1 1371.2,504.1" fill="#0f172a" fill-opacity="0.06"/><polygon points="1436.0,500.5 1442.2,504.1 1442.2,511.1 1436.0,514.7 1429.9,511.1 1429.9,504.1" fill="#0f172a" fill-opacity="0.06"/><polygon points="1494.6,500.5 1500.8,504.1 1500.8,511.1 1494.6,514.7 1488.5,511.1 1488.5,504.1" fill="#0f172a" fill-opacity="0.06"/><polygon points="1553.2,500.5 1559.4,504.1 1559.4,511.1 1553.2,514.7 1547.1,511.1 1547.1,504.1" fill="#0f172a" fill-opacity="0.06"/><polygon points="1611.8,500.5 1618.0,504.1 1618.0,511.1 1611.8,514.7 1605.7,511.1 1605.7,504.1" fill="#0f172a" fill-opacity="0.06"/><polygon points="-58.6,549.9 -51.3,554.1 -51.3,562.6 -58.6,566.8 -65.9,562.6 -65.9,554.1" fill="#ea580c" fill-opacity="0.06"/><polygon points="0.0,549.9 7.3,554.1 7.3,562.6 0.0,566.8 -7.3,562.6 -7.3,554.1" fill="#0f172a" fill-opacity="0.06"/><polygon points="58.6,549.9 65.9,554.1 65.9,562.6 58.6,566.8 51.3,562.6 51.3,554.1" fill="#0f172a" fill-opacity="0.06"/><polygon points="117.2,549.9 124.5,554.1 124.5,562.6 117.2,566.8 109.9,562.6 109.9,554.1" fill="#0f172a" fill-opacity="0.06"/><polygon points="175.8,549.9 183.1,554.1 183.1,562.6 175.8,566.8 168.5,562.6 168.5,554.1" fill="#ea580c" fill-opacity="0.06"/><polygon points="234.5,549.9 241.7,554.1 241.7,562.6 234.5,566.8 227.2,562.6 227.2,554.1" fill="#0f172a" fill-opacity="0.06"/><polygon points="293.1,549.9 300.4,554.1 300.4,562.6 293.1,566.8 285.8,562.6 285.8,554.1" fill="#0f172a" fill-opacity="0.06"/><polygon points="351.7,549.9 359.0,554.1 359.0,562.6 351.7,566.8 344.4,562.6 344.4,554.1" fill="#0f172a" fill-opacity="0.06"/><polygon points="410.3,549.9 417.6,554.1 417.6,562.6 410.3,566.8 403.0,562.6 403.0,554.1" fill="#0f172a" fill-opacity="0.06"/><polygon points="468.9,549.9 476.2,554.1 476.2,562.6 468.9,566.8 461.6,562.6 461.6,554.1" fill="#0f172a" fill-opacity="0.06"/><polygon points="527.5,549.9 534.8,554.1 534.8,562.6 527.5,566.8 520.2,562.6 520.2,554.1" fill="#0f172a" fill-opacity="0.06"/><polygon points="586.1,549.9 593.4,554.1 593.4,562.6 586.1,566.8 578.8,562.6 578.8,554.1" fill="#0f172a" fill-opacity="0.06"/><polygon points="644.7,549.9 652.0,554.1 652.0,562.6 644.7,566.8 637.4,562.6 637.4,554.1" fill="#0f172a" fill-opacity="0.06"/><polygon points="703.4,549.9 710.6,554.1 710.6,562.6 703.4,566.8 696.1,562.6 696.1,554.1" fill="#0f172a" fill-opacity="0.06"/><polygon points="762.0,549.9 769.3,554.1 769.3,562.6 762.0,566.8 754.7,562.6 754.7,554.1" fill="#0f172a" fill-opacity="0.06"/><polygon points="820.6,549.9 827.9,554.1 827.9,562.6 820.6,566.8 813.3,562.6 813.3,554.1" fill="#0f172a" fill-opacity="0.06"/><polygon points="879.2,549.9 886.5,554.1 886.5,562.6 879.2,566.8 871.9,562.6 871.9,554.1" fill="#0f172a" fill-opacity="0.06"/><polygon points="937.8,549.9 945.1,554.1 945.1,562.6 937.8,566.8 930.5,562.6 930.5,554.1" fill="#0f172a" fill-opacity="0.06"/><polygon points="996.4,549.9 1003.7,554.1 1003.7,562.6 996.4,566.8 989.1,562.6 989.1,554.1" fill="#0f172a" fill-opacity="0.06"/><polygon points="1055.0,549.9 1062.3,554.1 1062.3,562.6 1055.0,566.8 1047.7,562.6 1047.7,554.1" fill="#0f172a" fill-opacity="0.06"/><polygon points="1113.6,549.9 1120.9,554.1 1120.9,562.6 1113.6,566.8 1106.3,562.6 1106.3,554.1" fill="#ea580c" fill-opacity="0.06"/><polygon points="1172.3,549.9 1179.5,554.1 1179.5,562.6 1172.3,566.8 1165.0,562.6 1165.0,554.1" fill="#0f172a" fill-opacity="0.06"/><polygon points="1230.9,549.9 1238.2,554.1 1238.2,562.6 1230.9,566.8 1223.6,562.6 1223.6,554.1" fill="#0f172a" fill-opacity="0.06"/><polygon points="1289.5,549.9 1296.8,554.1 1296.8,562.6 1289.5,566.8 1282.2,562.6 1282.2,554.1" fill="#0f172a" fill-opacity="0.06"/><polygon points="1348.1,549.9 1355.4,554.1 1355.4,562.6 1348.1,566.8 1340.8,562.6 1340.8,554.1" fill="#0f172a" fill-opacity="0.06"/><polygon points="1406.7,549.9 1414.0,554.1 1414.0,562.6 1406.7,566.8 1399.4,562.6 1399.4,554.1" fill="#0f172a" fill-opacity="0.06"/><polygon points="1465.3,549.9 1472.6,554.1 1472.6,562.6 1465.3,566.8 1458.0,562.6 1458.0,554.1" fill="#0f172a" fill-opacity="0.06"/><polygon points="1523.9,549.9 1531.2,554.1 1531.2,562.6 1523.9,566.8 1516.6,562.6 1516.6,554.1" fill="#0f172a" fill-opacity="0.06"/><polygon points="1582.5,549.9 1589.8,554.1 1589.8,562.6 1582.5,566.8 1575.2,562.6 1575.2,554.1" fill="#ea580c" fill-opacity="0.06"/><polygon points="1641.2,549.9 1648.4,554.1 1648.4,562.6 1641.2,566.8 1633.9,562.6 1633.9,554.1" fill="#0f172a" fill-opacity="0.06"/><polygon points="-29.3,599.3 -20.8,604.2 -20.8,614.1 -29.3,619.0 -37.9,614.1 -37.9,604.2" fill="#0f172a" fill-opacity="0.07"/><polygon points="29.3,599.3 37.9,604.2 37.9,614.1 29.3,619.0 20.8,614.1 20.8,604.2" fill="#0f172a" fill-opacity="0.07"/><polygon points="87.9,599.3 96.5,604.2 96.5,614.1 87.9,619.0 79.4,614.1 79.4,604.2" fill="#0f172a" fill-opacity="0.07"/><polygon points="146.5,599.3 155.1,604.2 155.1,614.1 146.5,619.0 138.0,614.1 138.0,604.2" fill="#0f172a" fill-opacity="0.07"/><polygon points="205.1,599.3 213.7,604.2 213.7,614.1 205.1,619.0 196.6,614.1 196.6,604.2" fill="#0f172a" fill-opacity="0.07"/><polygon points="263.8,599.3 272.3,604.2 272.3,614.1 263.8,619.0 255.2,614.1 255.2,604.2" fill="#0f172a" fill-opacity="0.07"/><polygon points="322.4,599.3 330.9,604.2 330.9,614.1 322.4,619.0 313.8,614.1 313.8,604.2" fill="#0f172a" fill-opacity="0.07"/><polygon points="381.0,599.3 389.5,604.2 389.5,614.1 381.0,619.0 372.4,614.1 372.4,604.2" fill="#0f172a" fill-opacity="0.07"/><polygon points="439.6,599.3 448.1,604.2 448.1,614.1 439.6,619.0 431.0,614.1 431.0,604.2" fill="#0f172a" fill-opacity="0.07"/><polygon points="498.2,599.3 506.8,604.2 506.8,614.1 498.2,619.0 489.7,614.1 489.7,604.2" fill="#0f172a" fill-opacity="0.07"/><polygon points="556.8,599.3 565.4,604.2 565.4,614.1 556.8,619.0 548.3,614.1 548.3,604.2" fill="#0f172a" fill-opacity="0.07"/><polygon points="615.4,599.3 624.0,604.2 624.0,614.1 615.4,619.0 606.9,614.1 606.9,604.2" fill="#0f172a" fill-opacity="0.07"/><polygon points="674.0,599.3 682.6,604.2 682.6,614.1 674.0,619.0 665.5,614.1 665.5,604.2" fill="#0f172a" fill-opacity="0.07"/><polygon points="732.7,599.3 741.2,604.2 741.2,614.1 732.7,619.0 724.1,614.1 724.1,604.2" fill="#0f172a" fill-opacity="0.07"/><polygon points="791.3,599.3 799.8,604.2 799.8,614.1 791.3,619.0 782.7,614.1 782.7,604.2" fill="#0f172a" fill-opacity="0.07"/><polygon points="849.9,599.3 858.4,604.2 858.4,614.1 849.9,619.0 841.3,614.1 841.3,604.2" fill="#0f172a" fill-opacity="0.07"/><polygon points="908.5,599.3 917.0,604.2 917.0,614.1 908.5,619.0 899.9,614.1 899.9,604.2" fill="#0f172a" fill-opacity="0.07"/><polygon points="967.1,599.3 975.7,604.2 975.7,614.1 967.1,619.0 958.6,614.1 958.6,604.2" fill="#0f172a" fill-opacity="0.07"/><polygon points="1025.7,599.3 1034.3,604.2 1034.3,614.1 1025.7,619.0 1017.2,614.1 1017.2,604.2" fill="#0f172a" fill-opacity="0.07"/><polygon points="1084.3,599.3 1092.9,604.2 1092.9,614.1 1084.3,619.0 1075.8,614.1 1075.8,604.2" fill="#0f172a" fill-opacity="0.07"/><polygon points="1142.9,599.3 1151.5,604.2 1151.5,614.1 1142.9,619.0 1134.4,614.1 1134.4,604.2" fill="#0f172a" fill-opacity="0.07"/><polygon points="1201.6,599.3 1210.1,604.2 1210.1,614.1 1201.6,619.0 1193.0,614.1 1193.0,604.2" fill="#0f172a" fill-opacity="0.07"/><polygon points="1260.2,599.3 1268.7,604.2 1268.7,614.1 1260.2,619.0 1251.6,614.1 1251.6,604.2" fill="#0f172a" fill-opacity="0.07"/><polygon points="1318.8,599.3 1327.3,604.2 1327.3,614.1 1318.8,619.0 1310.2,614.1 1310.2,604.2" fill="#0f172a" fill-opacity="0.07"/><polygon points="1377.4,599.3 1385.9,604.2 1385.9,614.1 1377.4,619.0 1368.8,614.1 1368.8,604.2" fill="#0f172a" fill-opacity="0.07"/><polygon points="1436.0,599.3 1444.6,604.2 1444.6,614.1 1436.0,619.0 1427.5,614.1 1427.5,604.2" fill="#0f172a" fill-opacity="0.07"/><polygon points="1494.6,599.3 1503.2,604.2 1503.2,614.1 1494.6,619.0 1486.1,614.1 1486.1,604.2" fill="#ea580c" fill-opacity="0.07"/><polygon points="1553.2,599.3 1561.8,604.2 1561.8,614.1 1553.2,619.0 1544.7,614.1 1544.7,604.2" fill="#0f172a" fill-opacity="0.07"/><polygon points="1611.8,599.3 1620.4,604.2 1620.4,614.1 1611.8,619.0 1603.3,614.1 1603.3,604.2" fill="#0f172a" fill-opacity="0.07"/><polygon points="-58.6,648.4 -48.7,654.2 -48.7,665.6 -58.6,671.3 -68.5,665.6 -68.5,654.2" fill="#0f172a" fill-opacity="0.07"/><polygon points="0.0,648.4 9.9,654.2 9.9,665.6 0.0,671.3 -9.9,665.6 -9.9,654.2" fill="#0f172a" fill-opacity="0.07"/><polygon points="58.6,648.4 68.5,654.2 68.5,665.6 58.6,671.3 48.7,665.6 48.7,654.2" fill="#0f172a" fill-opacity="0.07"/><polygon points="117.2,648.4 127.1,654.2 127.1,665.6 117.2,671.3 107.3,665.6 107.3,654.2" fill="#0f172a" fill-opacity="0.07"/><polygon points="175.8,648.4 185.7,654.2 185.7,665.6 175.8,671.3 165.9,665.6 165.9,654.2" fill="#0f172a" fill-opacity="0.07"/><polygon points="234.5,648.4 244.4,654.2 244.4,665.6 234.5,671.3 224.5,665.6 224.5,654.2" fill="#0f172a" fill-opacity="0.07"/><polygon points="293.1,648.4 303.0,654.2 303.0,665.6 293.1,671.3 283.2,665.6 283.2,654.2" fill="#0f172a" fill-opacity="0.07"/><polygon points="351.7,648.4 361.6,654.2 361.6,665.6 351.7,671.3 341.8,665.6 341.8,654.2" fill="#0f172a" fill-opacity="0.07"/><polygon points="410.3,648.4 420.2,654.2 420.2,665.6 410.3,671.3 400.4,665.6 400.4,654.2" fill="#0f172a" fill-opacity="0.07"/><polygon points="468.9,648.4 478.8,654.2 478.8,665.6 468.9,671.3 459.0,665.6 459.0,654.2" fill="#0f172a" fill-opacity="0.07"/><polygon points="527.5,648.4 537.4,654.2 537.4,665.6 527.5,671.3 517.6,665.6 517.6,654.2" fill="#0f172a" fill-opacity="0.07"/><polygon points="586.1,648.4 596.0,654.2 596.0,665.6 586.1,671.3 576.2,665.6 576.2,654.2" fill="#0f172a" fill-opacity="0.07"/><polygon points="644.7,648.4 654.6,654.2 654.6,665.6 644.7,671.3 634.8,665.6 634.8,654.2" fill="#0f172a" fill-opacity="0.07"/><polygon points="703.4,648.4 713.3,654.2 713.3,665.6 703.4,671.3 693.4,665.6 693.4,654.2" fill="#0f172a" fill-opacity="0.07"/><polygon points="762.0,648.4 771.9,654.2 771.9,665.6 762.0,671.3 752.1,665.6 752.1,654.2" fill="#0f172a" fill-opacity="0.07"/><polygon points="820.6,648.4 830.5,654.2 830.5,665.6 820.6,671.3 810.7,665.6 810.7,654.2" fill="#0f172a" fill-opacity="0.07"/><polygon points="879.2,648.4 889.1,654.2 889.1,665.6 879.2,671.3 869.3,665.6 869.3,654.2" fill="#0f172a" fill-opacity="0.07"/><polygon points="937.8,648.4 947.7,654.2 947.7,665.6 937.8,671.3 927.9,665.6 927.9,654.2" fill="#0f172a" fill-opacity="0.07"/><polygon points="996.4,648.4 1006.3,654.2 1006.3,665.6 996.4,671.3 986.5,665.6 986.5,654.2" fill="#0f172a" fill-opacity="0.07"/><polygon points="1055.0,648.4 1064.9,654.2 1064.9,665.6 1055.0,671.3 1045.1,665.6 1045.1,654.2" fill="#0f172a" fill-opacity="0.07"/><polygon points="1113.6,648.4 1123.6,654.2 1123.6,665.6 1113.6,671.3 1103.7,665.6 1103.7,654.2" fill="#0f172a" fill-opacity="0.07"/><polygon points="1172.3,648.4 1182.2,654.2 1182.2,665.6 1172.3,671.3 1162.3,665.6 1162.3,654.2" fill="#0f172a" fill-opacity="0.07"/><polygon points="1230.9,648.4 1240.8,654.2 1240.8,665.6 1230.9,671.3 1221.0,665.6 1221.0,654.2" fill="#0f172a" fill-opacity="0.07"/><polygon points="1289.5,648.4 1299.4,654.2 1299.4,665.6 1289.5,671.3 1279.6,665.6 1279.6,654.2" fill="#0f172a" fill-opacity="0.07"/><polygon points="1348.1,648.4 1358.0,654.2 1358.0,665.6 1348.1,671.3 1338.2,665.6 1338.2,654.2" fill="#0f172a" fill-opacity="0.07"/><polygon points="1406.7,648.4 1416.6,654.2 1416.6,665.6 1406.7,671.3 1396.8,665.6 1396.8,654.2" fill="#0f172a" fill-opacity="0.07"/><polygon points="1465.3,648.4 1475.2,654.2 1475.2,665.6 1465.3,671.3 1455.4,665.6 1455.4,654.2" fill="#0f172a" fill-opacity="0.07"/><polygon points="1523.9,648.4 1533.8,654.2 1533.8,665.6 1523.9,671.3 1514.0,665.6 1514.0,654.2" fill="#0f172a" fill-opacity="0.07"/><polygon points="1582.5,648.4 1592.5,654.2 1592.5,665.6 1582.5,671.3 1572.6,665.6 1572.6,654.2" fill="#0f172a" fill-opacity="0.07"/><polygon points="1641.2,648.4 1651.1,654.2 1651.1,665.6 1641.2,671.3 1631.2,665.6 1631.2,654.2" fill="#0f172a" fill-opacity="0.07"/><polygon points="-29.3,697.5 -17.9,704.1 -17.9,717.2 -29.3,723.8 -40.7,717.2 -40.7,704.1" fill="#0f172a" fill-opacity="0.08"/><polygon points="29.3,697.5 40.7,704.1 40.7,717.2 29.3,723.8 17.9,717.2 17.9,704.1" fill="#0f172a" fill-opacity="0.08"/><polygon points="87.9,697.5 99.3,704.1 99.3,717.2 87.9,723.8 76.5,717.2 76.5,704.1" fill="#0f172a" fill-opacity="0.08"/><polygon points="146.5,697.5 157.9,704.1 157.9,717.2 146.5,723.8 135.1,717.2 135.1,704.1" fill="#0f172a" fill-opacity="0.08"/><polygon points="205.1,697.5 216.5,704.1 216.5,717.2 205.1,723.8 193.8,717.2 193.8,704.1" fill="#0f172a" fill-opacity="0.08"/><polygon points="263.8,697.5 275.1,704.1 275.1,717.2 263.8,723.8 252.4,717.2 252.4,704.1" fill="#0f172a" fill-opacity="0.08"/><polygon points="322.4,697.5 333.8,704.1 333.8,717.2 322.4,723.8 311.0,717.2 311.0,704.1" fill="#0f172a" fill-opacity="0.08"/><polygon points="381.0,697.5 392.4,704.1 392.4,717.2 381.0,723.8 369.6,717.2 369.6,704.1" fill="#0f172a" fill-opacity="0.08"/><polygon points="439.6,697.5 451.0,704.1 451.0,717.2 439.6,723.8 428.2,717.2 428.2,704.1" fill="#0f172a" fill-opacity="0.08"/><polygon points="498.2,697.5 509.6,704.1 509.6,717.2 498.2,723.8 486.8,717.2 486.8,704.1" fill="#0f172a" fill-opacity="0.08"/><polygon points="556.8,697.5 568.2,704.1 568.2,717.2 556.8,723.8 545.4,717.2 545.4,704.1" fill="#0f172a" fill-opacity="0.08"/><polygon points="615.4,697.5 626.8,704.1 626.8,717.2 615.4,723.8 604.0,717.2 604.0,704.1" fill="#0f172a" fill-opacity="0.08"/><polygon points="674.0,697.5 685.4,704.1 685.4,717.2 674.0,723.8 662.7,717.2 662.7,704.1" fill="#0f172a" fill-opacity="0.08"/><polygon points="732.7,697.5 744.0,704.1 744.0,717.2 732.7,723.8 721.3,717.2 721.3,704.1" fill="#0f172a" fill-opacity="0.08"/><polygon points="791.3,697.5 802.7,704.1 802.7,717.2 791.3,723.8 779.9,717.2 779.9,704.1" fill="#0f172a" fill-opacity="0.08"/><polygon points="849.9,697.5 861.3,704.1 861.3,717.2 849.9,723.8 838.5,717.2 838.5,704.1" fill="#0f172a" fill-opacity="0.08"/><polygon points="908.5,697.5 919.9,704.1 919.9,717.2 908.5,723.8 897.1,717.2 897.1,704.1" fill="#0f172a" fill-opacity="0.08"/><polygon points="967.1,697.5 978.5,704.1 978.5,717.2 967.1,723.8 955.7,717.2 955.7,704.1" fill="#0f172a" fill-opacity="0.08"/><polygon points="1025.7,697.5 1037.1,704.1 1037.1,717.2 1025.7,723.8 1014.3,717.2 1014.3,704.1" fill="#0f172a" fill-opacity="0.08"/><polygon points="1084.3,697.5 1095.7,704.1 1095.7,717.2 1084.3,723.8 1072.9,717.2 1072.9,704.1" fill="#0f172a" fill-opacity="0.08"/><polygon points="1142.9,697.5 1154.3,704.1 1154.3,717.2 1142.9,723.8 1131.6,717.2 1131.6,704.1" fill="#0f172a" fill-opacity="0.08"/><polygon points="1201.6,697.5 1212.9,704.1 1212.9,717.2 1201.6,723.8 1190.2,717.2 1190.2,704.1" fill="#0f172a" fill-opacity="0.08"/><polygon points="1260.2,697.5 1271.6,704.1 1271.6,717.2 1260.2,723.8 1248.8,717.2 1248.8,704.1" fill="#0f172a" fill-opacity="0.08"/><polygon points="1318.8,697.5 1330.2,704.1 1330.2,717.2 1318.8,723.8 1307.4,717.2 1307.4,704.1" fill="#0f172a" fill-opacity="0.08"/><polygon points="1377.4,697.5 1388.8,704.1 1388.8,717.2 1377.4,723.8 1366.0,717.2 1366.0,704.1" fill="#0f172a" fill-opacity="0.08"/><polygon points="1436.0,697.5 1447.4,704.1 1447.4,717.2 1436.0,723.8 1424.6,717.2 1424.6,704.1" fill="#0f172a" fill-opacity="0.08"/><polygon points="1494.6,697.5 1506.0,704.1 1506.0,717.2 1494.6,723.8 1483.2,717.2 1483.2,704.1" fill="#0f172a" fill-opacity="0.08"/><polygon points="1553.2,697.5 1564.6,704.1 1564.6,717.2 1553.2,723.8 1541.9,717.2 1541.9,704.1" fill="#0f172a" fill-opacity="0.08"/><polygon points="1611.8,697.5 1623.2,704.1 1623.2,717.2 1611.8,723.8 1600.5,717.2 1600.5,704.1" fill="#0f172a" fill-opacity="0.08"/><polygon points="-58.6,746.4 -45.6,753.9 -45.6,768.9 -58.6,776.4 -71.6,768.9 -71.6,753.9" fill="#0f172a" fill-opacity="0.08"/><polygon points="0.0,746.4 13.0,753.9 13.0,768.9 0.0,776.4 -13.0,768.9 -13.0,753.9" fill="#0f172a" fill-opacity="0.08"/><polygon points="58.6,746.4 71.6,753.9 71.6,768.9 58.6,776.4 45.6,768.9 45.6,753.9" fill="#0f172a" fill-opacity="0.08"/><polygon points="117.2,746.4 130.2,753.9 130.2,768.9 117.2,776.4 104.3,768.9 104.3,753.9" fill="#0f172a" fill-opacity="0.08"/><polygon points="175.8,746.4 188.8,753.9 188.8,768.9 175.8,776.4 162.9,768.9 162.9,753.9" fill="#0f172a" fill-opacity="0.08"/><polygon points="234.5,746.4 247.4,753.9 247.4,768.9 234.5,776.4 221.5,768.9 221.5,753.9" fill="#0f172a" fill-opacity="0.08"/><polygon points="293.1,746.4 306.0,753.9 306.0,768.9 293.1,776.4 280.1,768.9 280.1,753.9" fill="#ea580c" fill-opacity="0.08"/><polygon points="351.7,746.4 364.6,753.9 364.6,768.9 351.7,776.4 338.7,768.9 338.7,753.9" fill="#0f172a" fill-opacity="0.08"/><polygon points="410.3,746.4 423.3,753.9 423.3,768.9 410.3,776.4 397.3,768.9 397.3,753.9" fill="#0f172a" fill-opacity="0.08"/><polygon points="468.9,746.4 481.9,753.9 481.9,768.9 468.9,776.4 455.9,768.9 455.9,753.9" fill="#0f172a" fill-opacity="0.08"/><polygon points="527.5,746.4 540.5,753.9 540.5,768.9 527.5,776.4 514.5,768.9 514.5,753.9" fill="#ea580c" fill-opacity="0.08"/><polygon points="586.1,746.4 599.1,753.9 599.1,768.9 586.1,776.4 573.2,768.9 573.2,753.9" fill="#0f172a" fill-opacity="0.08"/><polygon points="644.7,746.4 657.7,753.9 657.7,768.9 644.7,776.4 631.8,768.9 631.8,753.9" fill="#0f172a" fill-opacity="0.08"/><polygon points="703.4,746.4 716.3,753.9 716.3,768.9 703.4,776.4 690.4,768.9 690.4,753.9" fill="#0f172a" fill-opacity="0.08"/><polygon points="762.0,746.4 774.9,753.9 774.9,768.9 762.0,776.4 749.0,768.9 749.0,753.9" fill="#ea580c" fill-opacity="0.08"/><polygon points="820.6,746.4 833.5,753.9 833.5,768.9 820.6,776.4 807.6,768.9 807.6,753.9" fill="#0f172a" fill-opacity="0.08"/><polygon points="879.2,746.4 892.2,753.9 892.2,768.9 879.2,776.4 866.2,768.9 866.2,753.9" fill="#0f172a" fill-opacity="0.08"/><polygon points="937.8,746.4 950.8,753.9 950.8,768.9 937.8,776.4 924.8,768.9 924.8,753.9" fill="#0f172a" fill-opacity="0.08"/><polygon points="996.4,746.4 1009.4,753.9 1009.4,768.9 996.4,776.4 983.4,768.9 983.4,753.9" fill="#0f172a" fill-opacity="0.08"/><polygon points="1055.0,746.4 1068.0,753.9 1068.0,768.9 1055.0,776.4 1042.1,768.9 1042.1,753.9" fill="#0f172a" fill-opacity="0.08"/><polygon points="1113.6,746.4 1126.6,753.9 1126.6,768.9 1113.6,776.4 1100.7,768.9 1100.7,753.9" fill="#0f172a" fill-opacity="0.08"/><polygon points="1172.3,746.4 1185.2,753.9 1185.2,768.9 1172.3,776.4 1159.3,768.9 1159.3,753.9" fill="#0f172a" fill-opacity="0.08"/><polygon points="1230.9,746.4 1243.8,753.9 1243.8,768.9 1230.9,776.4 1217.9,768.9 1217.9,753.9" fill="#0f172a" fill-opacity="0.08"/><polygon points="1289.5,746.4 1302.4,753.9 1302.4,768.9 1289.5,776.4 1276.5,768.9 1276.5,753.9" fill="#0f172a" fill-opacity="0.08"/><polygon points="1348.1,746.4 1361.1,753.9 1361.1,768.9 1348.1,776.4 1335.1,768.9 1335.1,753.9" fill="#0f172a" fill-opacity="0.08"/><polygon points="1406.7,746.4 1419.7,753.9 1419.7,768.9 1406.7,776.4 1393.7,768.9 1393.7,753.9" fill="#0f172a" fill-opacity="0.08"/><polygon points="1465.3,746.4 1478.3,753.9 1478.3,768.9 1465.3,776.4 1452.3,768.9 1452.3,753.9" fill="#0f172a" fill-opacity="0.08"/><polygon points="1523.9,746.4 1536.9,753.9 1536.9,768.9 1523.9,776.4 1511.0,768.9 1511.0,753.9" fill="#0f172a" fill-opacity="0.08"/><polygon points="1582.5,746.4 1595.5,753.9 1595.5,768.9 1582.5,776.4 1569.6,768.9 1569.6,753.9" fill="#0f172a" fill-opacity="0.08"/><polygon points="1641.2,746.4 1654.1,753.9 1654.1,768.9 1641.2,776.4 1628.2,768.9 1628.2,753.9" fill="#0f172a" fill-opacity="0.08"/><polygon points="-29.3,795.2 -14.6,803.7 -14.6,820.6 -29.3,829.1 -44.0,820.6 -44.0,803.7" fill="#0f172a" fill-opacity="0.09"/><polygon points="29.3,795.2 44.0,803.7 44.0,820.6 29.3,829.1 14.6,820.6 14.6,803.7" fill="#0f172a" fill-opacity="0.09"/><polygon points="87.9,795.2 102.6,803.7 102.6,820.6 87.9,829.1 73.3,820.6 73.3,803.7" fill="#0f172a" fill-opacity="0.09"/><polygon points="146.5,795.2 161.2,803.7 161.2,820.6 146.5,829.1 131.9,820.6 131.9,803.7" fill="#0f172a" fill-opacity="0.09"/><polygon points="205.1,795.2 219.8,803.7 219.8,820.6 205.1,829.1 190.5,820.6 190.5,803.7" fill="#0f172a" fill-opacity="0.09"/><polygon points="263.8,795.2 278.4,803.7 278.4,820.6 263.8,829.1 249.1,820.6 249.1,803.7" fill="#0f172a" fill-opacity="0.09"/><polygon points="322.4,795.2 337.0,803.7 337.0,820.6 322.4,829.1 307.7,820.6 307.7,803.7" fill="#0f172a" fill-opacity="0.09"/><polygon points="381.0,795.2 395.6,803.7 395.6,820.6 381.0,829.1 366.3,820.6 366.3,803.7" fill="#0f172a" fill-opacity="0.09"/><polygon points="439.6,795.2 454.3,803.7 454.3,820.6 439.6,829.1 424.9,820.6 424.9,803.7" fill="#0f172a" fill-opacity="0.09"/><polygon points="498.2,795.2 512.9,803.7 512.9,820.6 498.2,829.1 483.6,820.6 483.6,803.7" fill="#0f172a" fill-opacity="0.09"/><polygon points="556.8,795.2 571.5,803.7 571.5,820.6 556.8,829.1 542.2,820.6 542.2,803.7" fill="#0f172a" fill-opacity="0.09"/><polygon points="615.4,795.2 630.1,803.7 630.1,820.6 615.4,829.1 600.8,820.6 600.8,803.7" fill="#0f172a" fill-opacity="0.09"/><polygon points="674.0,795.2 688.7,803.7 688.7,820.6 674.0,829.1 659.4,820.6 659.4,803.7" fill="#0f172a" fill-opacity="0.09"/><polygon points="732.7,795.2 747.3,803.7 747.3,820.6 732.7,829.1 718.0,820.6 718.0,803.7" fill="#0f172a" fill-opacity="0.09"/><polygon points="791.3,795.2 805.9,803.7 805.9,820.6 791.3,829.1 776.6,820.6 776.6,803.7" fill="#0f172a" fill-opacity="0.09"/><polygon points="849.9,795.2 864.5,803.7 864.5,820.6 849.9,829.1 835.2,820.6 835.2,803.7" fill="#0f172a" fill-opacity="0.09"/><polygon points="908.5,795.2 923.2,803.7 923.2,820.6 908.5,829.1 893.8,820.6 893.8,803.7" fill="#0f172a" fill-opacity="0.09"/><polygon points="967.1,795.2 981.8,803.7 981.8,820.6 967.1,829.1 952.5,820.6 952.5,803.7" fill="#0f172a" fill-opacity="0.09"/><polygon points="1025.7,795.2 1040.4,803.7 1040.4,820.6 1025.7,829.1 1011.1,820.6 1011.1,803.7" fill="#0f172a" fill-opacity="0.09"/><polygon points="1084.3,795.2 1099.0,803.7 1099.0,820.6 1084.3,829.1 1069.7,820.6 1069.7,803.7" fill="#0f172a" fill-opacity="0.09"/><polygon points="1142.9,795.2 1157.6,803.7 1157.6,820.6 1142.9,829.1 1128.3,820.6 1128.3,803.7" fill="#0f172a" fill-opacity="0.09"/><polygon points="1201.6,795.2 1216.2,803.7 1216.2,820.6 1201.6,829.1 1186.9,820.6 1186.9,803.7" fill="#0f172a" fill-opacity="0.09"/><polygon points="1260.2,795.2 1274.8,803.7 1274.8,820.6 1260.2,829.1 1245.5,820.6 1245.5,803.7" fill="#0f172a" fill-opacity="0.09"/><polygon points="1318.8,795.2 1333.4,803.7 1333.4,820.6 1318.8,829.1 1304.1,820.6 1304.1,803.7" fill="#0f172a" fill-opacity="0.09"/><polygon points="1377.4,795.2 1392.1,803.7 1392.1,820.6 1377.4,829.1 1362.7,820.6 1362.7,803.7" fill="#0f172a" fill-opacity="0.09"/><polygon points="1436.0,795.2 1450.7,803.7 1450.7,820.6 1436.0,829.1 1421.4,820.6 1421.4,803.7" fill="#0f172a" fill-opacity="0.09"/><polygon points="1494.6,795.2 1509.3,803.7 1509.3,820.6 1494.6,829.1 1480.0,820.6 1480.0,803.7" fill="#0f172a" fill-opacity="0.09"/><polygon points="1553.2,795.2 1567.9,803.7 1567.9,820.6 1553.2,829.1 1538.6,820.6 1538.6,803.7" fill="#0f172a" fill-opacity="0.09"/><polygon points="1611.8,795.2 1626.5,803.7 1626.5,820.6 1611.8,829.1 1597.2,820.6 1597.2,803.7" fill="#0f172a" fill-opacity="0.09"/><polygon points="-58.6,843.9 -42.2,853.4 -42.2,872.4 -58.6,881.9 -75.1,872.4 -75.1,853.4" fill="#0f172a" fill-opacity="0.09"/><polygon points="0.0,843.9 16.5,853.4 16.5,872.4 0.0,881.9 -16.5,872.4 -16.5,853.4" fill="#0f172a" fill-opacity="0.09"/><polygon points="58.6,843.9 75.1,853.4 75.1,872.4 58.6,881.9 42.2,872.4 42.2,853.4" fill="#0f172a" fill-opacity="0.09"/><polygon points="117.2,843.9 133.7,853.4 133.7,872.4 117.2,881.9 100.8,872.4 100.8,853.4" fill="#0f172a" fill-opacity="0.09"/><polygon points="175.8,843.9 192.3,853.4 192.3,872.4 175.8,881.9 159.4,872.4 159.4,853.4" fill="#0f172a" fill-opacity="0.09"/><polygon points="234.5,843.9 250.9,853.4 250.9,872.4 234.5,881.9 218.0,872.4 218.0,853.4" fill="#0f172a" fill-opacity="0.09"/><polygon points="293.1,843.9 309.5,853.4 309.5,872.4 293.1,881.9 276.6,872.4 276.6,853.4" fill="#0f172a" fill-opacity="0.09"/><polygon points="351.7,843.9 368.1,853.4 368.1,872.4 351.7,881.9 335.2,872.4 335.2,853.4" fill="#0f172a" fill-opacity="0.09"/><polygon points="410.3,843.9 426.7,853.4 426.7,872.4 410.3,881.9 393.8,872.4 393.8,853.4" fill="#0f172a" fill-opacity="0.09"/><polygon points="468.9,843.9 485.4,853.4 485.4,872.4 468.9,881.9 452.4,872.4 452.4,853.4" fill="#0f172a" fill-opacity="0.09"/><polygon points="527.5,843.9 544.0,853.4 544.0,872.4 527.5,881.9 511.1,872.4 511.1,853.4" fill="#0f172a" fill-opacity="0.09"/><polygon points="586.1,843.9 602.6,853.4 602.6,872.4 586.1,881.9 569.7,872.4 569.7,853.4" fill="#0f172a" fill-opacity="0.09"/><polygon points="644.7,843.9 661.2,853.4 661.2,872.4 644.7,881.9 628.3,872.4 628.3,853.4" fill="#0f172a" fill-opacity="0.09"/><polygon points="703.4,843.9 719.8,853.4 719.8,872.4 703.4,881.9 686.9,872.4 686.9,853.4" fill="#0f172a" fill-opacity="0.09"/><polygon points="762.0,843.9 778.4,853.4 778.4,872.4 762.0,881.9 745.5,872.4 745.5,853.4" fill="#0f172a" fill-opacity="0.09"/><polygon points="820.6,843.9 837.0,853.4 837.0,872.4 820.6,881.9 804.1,872.4 804.1,853.4" fill="#0f172a" fill-opacity="0.09"/><polygon points="879.2,843.9 895.6,853.4 895.6,872.4 879.2,881.9 862.7,872.4 862.7,853.4" fill="#0f172a" fill-opacity="0.09"/><polygon points="937.8,843.9 954.3,853.4 954.3,872.4 937.8,881.9 921.3,872.4 921.3,853.4" fill="#0f172a" fill-opacity="0.09"/><polygon points="996.4,843.9 1012.9,853.4 1012.9,872.4 996.4,881.9 980.0,872.4 980.0,853.4" fill="#0f172a" fill-opacity="0.09"/><polygon points="1055.0,843.9 1071.5,853.4 1071.5,872.4 1055.0,881.9 1038.6,872.4 1038.6,853.4" fill="#0f172a" fill-opacity="0.09"/><polygon points="1113.6,843.9 1130.1,853.4 1130.1,872.4 1113.6,881.9 1097.2,872.4 1097.2,853.4" fill="#0f172a" fill-opacity="0.09"/><polygon points="1172.3,843.9 1188.7,853.4 1188.7,872.4 1172.3,881.9 1155.8,872.4 1155.8,853.4" fill="#0f172a" fill-opacity="0.09"/><polygon points="1230.9,843.9 1247.3,853.4 1247.3,872.4 1230.9,881.9 1214.4,872.4 1214.4,853.4" fill="#0f172a" fill-opacity="0.09"/><polygon points="1289.5,843.9 1305.9,853.4 1305.9,872.4 1289.5,881.9 1273.0,872.4 1273.0,853.4" fill="#0f172a" fill-opacity="0.09"/><polygon points="1348.1,843.9 1364.5,853.4 1364.5,872.4 1348.1,881.9 1331.6,872.4 1331.6,853.4" fill="#0f172a" fill-opacity="0.09"/><polygon points="1406.7,843.9 1423.2,853.4 1423.2,872.4 1406.7,881.9 1390.2,872.4 1390.2,853.4" fill="#0f172a" fill-opacity="0.09"/><polygon points="1465.3,843.9 1481.8,853.4 1481.8,872.4 1465.3,881.9 1448.9,872.4 1448.9,853.4" fill="#0f172a" fill-opacity="0.09"/><polygon points="1523.9,843.9 1540.4,853.4 1540.4,872.4 1523.9,881.9 1507.5,872.4 1507.5,853.4" fill="#0f172a" fill-opacity="0.09"/><polygon points="1582.5,843.9 1599.0,853.4 1599.0,872.4 1582.5,881.9 1566.1,872.4 1566.1,853.4" fill="#0f172a" fill-opacity="0.09"/><polygon points="1641.2,843.9 1657.6,853.4 1657.6,872.4 1641.2,881.9 1624.7,872.4 1624.7,853.4" fill="#0f172a" fill-opacity="0.09"/><polygon points="-29.3,892.5 -10.9,903.1 -10.9,924.3 -29.3,934.9 -47.7,924.3 -47.7,903.1" fill="#0f172a" fill-opacity="0.10"/><polygon points="29.3,892.5 47.7,903.1 47.7,924.3 29.3,934.9 10.9,924.3 10.9,903.1" fill="#0f172a" fill-opacity="0.10"/><polygon points="87.9,892.5 106.3,903.1 106.3,924.3 87.9,934.9 69.6,924.3 69.6,903.1" fill="#0f172a" fill-opacity="0.10"/><polygon points="146.5,892.5 164.9,903.1 164.9,924.3 146.5,934.9 128.2,924.3 128.2,903.1" fill="#0f172a" fill-opacity="0.10"/><polygon points="205.1,892.5 223.5,903.1 223.5,924.3 205.1,934.9 186.8,924.3 186.8,903.1" fill="#0f172a" fill-opacity="0.10"/><polygon points="263.8,892.5 282.1,903.1 282.1,924.3 263.8,934.9 245.4,924.3 245.4,903.1" fill="#0f172a" fill-opacity="0.10"/><polygon points="322.4,892.5 340.7,903.1 340.7,924.3 322.4,934.9 304.0,924.3 304.0,903.1" fill="#0f172a" fill-opacity="0.10"/><polygon points="381.0,892.5 399.3,903.1 399.3,924.3 381.0,934.9 362.6,924.3 362.6,903.1" fill="#0f172a" fill-opacity="0.10"/><polygon points="439.6,892.5 458.0,903.1 458.0,924.3 439.6,934.9 421.2,924.3 421.2,903.1" fill="#0f172a" fill-opacity="0.10"/><polygon points="498.2,892.5 516.6,903.1 516.6,924.3 498.2,934.9 479.8,924.3 479.8,903.1" fill="#0f172a" fill-opacity="0.10"/><polygon points="556.8,892.5 575.2,903.1 575.2,924.3 556.8,934.9 538.5,924.3 538.5,903.1" fill="#0f172a" fill-opacity="0.10"/><polygon points="615.4,892.5 633.8,903.1 633.8,924.3 615.4,934.9 597.1,924.3 597.1,903.1" fill="#0f172a" fill-opacity="0.10"/><polygon points="674.0,892.5 692.4,903.1 692.4,924.3 674.0,934.9 655.7,924.3 655.7,903.1" fill="#0f172a" fill-opacity="0.10"/><polygon points="732.7,892.5 751.0,903.1 751.0,924.3 732.7,934.9 714.3,924.3 714.3,903.1" fill="#0f172a" fill-opacity="0.10"/><polygon points="791.3,892.5 809.6,903.1 809.6,924.3 791.3,934.9 772.9,924.3 772.9,903.1" fill="#0f172a" fill-opacity="0.10"/><polygon points="849.9,892.5 868.2,903.1 868.2,924.3 849.9,934.9 831.5,924.3 831.5,903.1" fill="#0f172a" fill-opacity="0.10"/><polygon points="908.5,892.5 926.9,903.1 926.9,924.3 908.5,934.9 890.1,924.3 890.1,903.1" fill="#0f172a" fill-opacity="0.10"/><polygon points="967.1,892.5 985.5,903.1 985.5,924.3 967.1,934.9 948.7,924.3 948.7,903.1" fill="#0f172a" fill-opacity="0.10"/><polygon points="1025.7,892.5 1044.1,903.1 1044.1,924.3 1025.7,934.9 1007.4,924.3 1007.4,903.1" fill="#0f172a" fill-opacity="0.10"/><polygon points="1084.3,892.5 1102.7,903.1 1102.7,924.3 1084.3,934.9 1066.0,924.3 1066.0,903.1" fill="#0f172a" fill-opacity="0.10"/><polygon points="1142.9,892.5 1161.3,903.1 1161.3,924.3 1142.9,934.9 1124.6,924.3 1124.6,903.1" fill="#0f172a" fill-opacity="0.10"/><polygon points="1201.6,892.5 1219.9,903.1 1219.9,924.3 1201.6,934.9 1183.2,924.3 1183.2,903.1" fill="#ea580c" fill-opacity="0.10"/><polygon points="1260.2,892.5 1278.5,903.1 1278.5,924.3 1260.2,934.9 1241.8,924.3 1241.8,903.1" fill="#0f172a" fill-opacity="0.10"/><polygon points="1318.8,892.5 1337.1,903.1 1337.1,924.3 1318.8,934.9 1300.4,924.3 1300.4,903.1" fill="#0f172a" fill-opacity="0.10"/><polygon points="1377.4,892.5 1395.8,903.1 1395.8,924.3 1377.4,934.9 1359.0,924.3 1359.0,903.1" fill="#0f172a" fill-opacity="0.10"/><polygon points="1436.0,892.5 1454.4,903.1 1454.4,924.3 1436.0,934.9 1417.6,924.3 1417.6,903.1" fill="#0f172a" fill-opacity="0.10"/><polygon points="1494.6,892.5 1513.0,903.1 1513.0,924.3 1494.6,934.9 1476.3,924.3 1476.3,903.1" fill="#0f172a" fill-opacity="0.10"/><polygon points="1553.2,892.5 1571.6,903.1 1571.6,924.3 1553.2,934.9 1534.9,924.3 1534.9,903.1" fill="#0f172a" fill-opacity="0.10"/><polygon points="1611.8,892.5 1630.2,903.1 1630.2,924.3 1611.8,934.9 1593.5,924.3 1593.5,903.1" fill="#0f172a" fill-opacity="0.10"/><polygon points="-58.6,940.9 -38.2,952.7 -38.2,976.2 -58.6,988.0 -79.0,976.2 -79.0,952.7" fill="#0f172a" fill-opacity="0.10"/><polygon points="0.0,940.9 20.4,952.7 20.4,976.2 0.0,988.0 -20.4,976.2 -20.4,952.7" fill="#0f172a" fill-opacity="0.10"/><polygon points="58.6,940.9 79.0,952.7 79.0,976.2 58.6,988.0 38.2,976.2 38.2,952.7" fill="#0f172a" fill-opacity="0.10"/><polygon points="117.2,940.9 137.6,952.7 137.6,976.2 117.2,988.0 96.8,976.2 96.8,952.7" fill="#0f172a" fill-opacity="0.10"/><polygon points="175.8,940.9 196.2,952.7 196.2,976.2 175.8,988.0 155.5,976.2 155.5,952.7" fill="#0f172a" fill-opacity="0.10"/><polygon points="234.5,940.9 254.8,952.7 254.8,976.2 234.5,988.0 214.1,976.2 214.1,952.7" fill="#0f172a" fill-opacity="0.10"/><polygon points="293.1,940.9 313.4,952.7 313.4,976.2 293.1,988.0 272.7,976.2 272.7,952.7" fill="#0f172a" fill-opacity="0.10"/><polygon points="351.7,940.9 372.1,952.7 372.1,976.2 351.7,988.0 331.3,976.2 331.3,952.7" fill="#0f172a" fill-opacity="0.10"/><polygon points="410.3,940.9 430.7,952.7 430.7,976.2 410.3,988.0 389.9,976.2 389.9,952.7" fill="#0f172a" fill-opacity="0.10"/><polygon points="468.9,940.9 489.3,952.7 489.3,976.2 468.9,988.0 448.5,976.2 448.5,952.7" fill="#0f172a" fill-opacity="0.10"/><polygon points="527.5,940.9 547.9,952.7 547.9,976.2 527.5,988.0 507.1,976.2 507.1,952.7" fill="#0f172a" fill-opacity="0.10"/><polygon points="586.1,940.9 606.5,952.7 606.5,976.2 586.1,988.0 565.7,976.2 565.7,952.7" fill="#0f172a" fill-opacity="0.10"/><polygon points="644.7,940.9 665.1,952.7 665.1,976.2 644.7,988.0 624.4,976.2 624.4,952.7" fill="#0f172a" fill-opacity="0.10"/><polygon points="703.4,940.9 723.7,952.7 723.7,976.2 703.4,988.0 683.0,976.2 683.0,952.7" fill="#0f172a" fill-opacity="0.10"/><polygon points="762.0,940.9 782.3,952.7 782.3,976.2 762.0,988.0 741.6,976.2 741.6,952.7" fill="#0f172a" fill-opacity="0.10"/><polygon points="820.6,940.9 841.0,952.7 841.0,976.2 820.6,988.0 800.2,976.2 800.2,952.7" fill="#0f172a" fill-opacity="0.10"/><polygon points="879.2,940.9 899.6,952.7 899.6,976.2 879.2,988.0 858.8,976.2 858.8,952.7" fill="#0f172a" fill-opacity="0.10"/><polygon points="937.8,940.9 958.2,952.7 958.2,976.2 937.8,988.0 917.4,976.2 917.4,952.7" fill="#0f172a" fill-opacity="0.10"/><polygon points="996.4,940.9 1016.8,952.7 1016.8,976.2 996.4,988.0 976.0,976.2 976.0,952.7" fill="#0f172a" fill-opacity="0.10"/><polygon points="1055.0,940.9 1075.4,952.7 1075.4,976.2 1055.0,988.0 1034.6,976.2 1034.6,952.7" fill="#0f172a" fill-opacity="0.10"/><polygon points="1113.6,940.9 1134.0,952.7 1134.0,976.2 1113.6,988.0 1093.3,976.2 1093.3,952.7" fill="#0f172a" fill-opacity="0.10"/><polygon points="1172.3,940.9 1192.6,952.7 1192.6,976.2 1172.3,988.0 1151.9,976.2 1151.9,952.7" fill="#0f172a" fill-opacity="0.10"/><polygon points="1230.9,940.9 1251.2,952.7 1251.2,976.2 1230.9,988.0 1210.5,976.2 1210.5,952.7" fill="#0f172a" fill-opacity="0.10"/><polygon points="1289.5,940.9 1309.9,952.7 1309.9,976.2 1289.5,988.0 1269.1,976.2 1269.1,952.7" fill="#0f172a" fill-opacity="0.10"/><polygon points="1348.1,940.9 1368.5,952.7 1368.5,976.2 1348.1,988.0 1327.7,976.2 1327.7,952.7" fill="#0f172a" fill-opacity="0.10"/><polygon points="1406.7,940.9 1427.1,952.7 1427.1,976.2 1406.7,988.0 1386.3,976.2 1386.3,952.7" fill="#0f172a" fill-opacity="0.10"/><polygon points="1465.3,940.9 1485.7,952.7 1485.7,976.2 1465.3,988.0 1444.9,976.2 1444.9,952.7" fill="#0f172a" fill-opacity="0.10"/><polygon points="1523.9,940.9 1544.3,952.7 1544.3,976.2 1523.9,988.0 1503.5,976.2 1503.5,952.7" fill="#0f172a" fill-opacity="0.10"/><polygon points="1582.5,940.9 1602.9,952.7 1602.9,976.2 1582.5,988.0 1562.2,976.2 1562.2,952.7" fill="#0f172a" fill-opacity="0.10"/><polygon points="1641.2,940.9 1661.5,952.7 1661.5,976.2 1641.2,988.0 1620.8,976.2 1620.8,952.7" fill="#0f172a" fill-opacity="0.10"/><polygon points="-29.3,989.2 -6.8,1002.2 -6.8,1028.2 -29.3,1041.2 -51.8,1028.2 -51.8,1002.2" fill="#0f172a" fill-opacity="0.11"/><polygon points="29.3,989.2 51.8,1002.2 51.8,1028.2 29.3,1041.2 6.8,1028.2 6.8,1002.2" fill="#0f172a" fill-opacity="0.11"/><polygon points="87.9,989.2 110.4,1002.2 110.4,1028.2 87.9,1041.2 65.4,1028.2 65.4,1002.2" fill="#ea580c" fill-opacity="0.11"/><polygon points="146.5,989.2 169.0,1002.2 169.0,1028.2 146.5,1041.2 124.0,1028.2 124.0,1002.2" fill="#0f172a" fill-opacity="0.11"/><polygon points="205.1,989.2 227.7,1002.2 227.7,1028.2 205.1,1041.2 182.6,1028.2 182.6,1002.2" fill="#0f172a" fill-opacity="0.11"/><polygon points="263.8,989.2 286.3,1002.2 286.3,1028.2 263.8,1041.2 241.2,1028.2 241.2,1002.2" fill="#0f172a" fill-opacity="0.11"/><polygon points="322.4,989.2 344.9,1002.2 344.9,1028.2 322.4,1041.2 299.9,1028.2 299.9,1002.2" fill="#0f172a" fill-opacity="0.11"/><polygon points="381.0,989.2 403.5,1002.2 403.5,1028.2 381.0,1041.2 358.5,1028.2 358.5,1002.2" fill="#0f172a" fill-opacity="0.11"/><polygon points="439.6,989.2 462.1,1002.2 462.1,1028.2 439.6,1041.2 417.1,1028.2 417.1,1002.2" fill="#0f172a" fill-opacity="0.11"/><polygon points="498.2,989.2 520.7,1002.2 520.7,1028.2 498.2,1041.2 475.7,1028.2 475.7,1002.2" fill="#0f172a" fill-opacity="0.11"/><polygon points="556.8,989.2 579.3,1002.2 579.3,1028.2 556.8,1041.2 534.3,1028.2 534.3,1002.2" fill="#0f172a" fill-opacity="0.11"/><polygon points="615.4,989.2 637.9,1002.2 637.9,1028.2 615.4,1041.2 592.9,1028.2 592.9,1002.2" fill="#0f172a" fill-opacity="0.11"/><polygon points="674.0,989.2 696.6,1002.2 696.6,1028.2 674.0,1041.2 651.5,1028.2 651.5,1002.2" fill="#0f172a" fill-opacity="0.11"/><polygon points="732.7,989.2 755.2,1002.2 755.2,1028.2 732.7,1041.2 710.1,1028.2 710.1,1002.2" fill="#0f172a" fill-opacity="0.11"/><polygon points="791.3,989.2 813.8,1002.2 813.8,1028.2 791.3,1041.2 768.8,1028.2 768.8,1002.2" fill="#0f172a" fill-opacity="0.11"/><polygon points="849.9,989.2 872.4,1002.2 872.4,1028.2 849.9,1041.2 827.4,1028.2 827.4,1002.2" fill="#0f172a" fill-opacity="0.11"/><polygon points="908.5,989.2 931.0,1002.2 931.0,1028.2 908.5,1041.2 886.0,1028.2 886.0,1002.2" fill="#0f172a" fill-opacity="0.11"/><polygon points="967.1,989.2 989.6,1002.2 989.6,1028.2 967.1,1041.2 944.6,1028.2 944.6,1002.2" fill="#0f172a" fill-opacity="0.11"/><polygon points="1025.7,989.2 1048.2,1002.2 1048.2,1028.2 1025.7,1041.2 1003.2,1028.2 1003.2,1002.2" fill="#0f172a" fill-opacity="0.11"/><polygon points="1084.3,989.2 1106.8,1002.2 1106.8,1028.2 1084.3,1041.2 1061.8,1028.2 1061.8,1002.2" fill="#0f172a" fill-opacity="0.11"/><polygon points="1142.9,989.2 1165.5,1002.2 1165.5,1028.2 1142.9,1041.2 1120.4,1028.2 1120.4,1002.2" fill="#0f172a" fill-opacity="0.11"/><polygon points="1201.6,989.2 1224.1,1002.2 1224.1,1028.2 1201.6,1041.2 1179.0,1028.2 1179.0,1002.2" fill="#0f172a" fill-opacity="0.11"/><polygon points="1260.2,989.2 1282.7,1002.2 1282.7,1028.2 1260.2,1041.2 1237.7,1028.2 1237.7,1002.2" fill="#0f172a" fill-opacity="0.11"/><polygon points="1318.8,989.2 1341.3,1002.2 1341.3,1028.2 1318.8,1041.2 1296.3,1028.2 1296.3,1002.2" fill="#0f172a" fill-opacity="0.11"/><polygon points="1377.4,989.2 1399.9,1002.2 1399.9,1028.2 1377.4,1041.2 1354.9,1028.2 1354.9,1002.2" fill="#0f172a" fill-opacity="0.11"/><polygon points="1436.0,989.2 1458.5,1002.2 1458.5,1028.2 1436.0,1041.2 1413.5,1028.2 1413.5,1002.2" fill="#0f172a" fill-opacity="0.11"/><polygon points="1494.6,989.2 1517.1,1002.2 1517.1,1028.2 1494.6,1041.2 1472.1,1028.2 1472.1,1002.2" fill="#0f172a" fill-opacity="0.11"/><polygon points="1553.2,989.2 1575.7,1002.2 1575.7,1028.2 1553.2,1041.2 1530.7,1028.2 1530.7,1002.2" fill="#0f172a" fill-opacity="0.11"/><polygon points="1611.8,989.2 1634.4,1002.2 1634.4,1028.2 1611.8,1041.2 1589.3,1028.2 1589.3,1002.2" fill="#0f172a" fill-opacity="0.11"/><polygon points="-58.6,1037.4 -33.9,1051.7 -33.9,1080.2 -58.6,1094.5 -83.4,1080.2 -83.4,1051.7" fill="#0f172a" fill-opacity="0.12"/><polygon points="0.0,1037.4 24.7,1051.7 24.7,1080.2 0.0,1094.5 -24.7,1080.2 -24.7,1051.7" fill="#0f172a" fill-opacity="0.12"/><polygon points="58.6,1037.4 83.4,1051.7 83.4,1080.2 58.6,1094.5 33.9,1080.2 33.9,1051.7" fill="#0f172a" fill-opacity="0.12"/><polygon points="117.2,1037.4 142.0,1051.7 142.0,1080.2 117.2,1094.5 92.5,1080.2 92.5,1051.7" fill="#0f172a" fill-opacity="0.12"/><polygon points="175.8,1037.4 200.6,1051.7 200.6,1080.2 175.8,1094.5 151.1,1080.2 151.1,1051.7" fill="#0f172a" fill-opacity="0.12"/><polygon points="234.5,1037.4 259.2,1051.7 259.2,1080.2 234.5,1094.5 209.7,1080.2 209.7,1051.7" fill="#0f172a" fill-opacity="0.12"/><polygon points="293.1,1037.4 317.8,1051.7 317.8,1080.2 293.1,1094.5 268.3,1080.2 268.3,1051.7" fill="#0f172a" fill-opacity="0.12"/><polygon points="351.7,1037.4 376.4,1051.7 376.4,1080.2 351.7,1094.5 326.9,1080.2 326.9,1051.7" fill="#0f172a" fill-opacity="0.12"/><polygon points="410.3,1037.4 435.0,1051.7 435.0,1080.2 410.3,1094.5 385.5,1080.2 385.5,1051.7" fill="#0f172a" fill-opacity="0.12"/><polygon points="468.9,1037.4 493.6,1051.7 493.6,1080.2 468.9,1094.5 444.2,1080.2 444.2,1051.7" fill="#0f172a" fill-opacity="0.12"/><polygon points="527.5,1037.4 552.3,1051.7 552.3,1080.2 527.5,1094.5 502.8,1080.2 502.8,1051.7" fill="#0f172a" fill-opacity="0.12"/><polygon points="586.1,1037.4 610.9,1051.7 610.9,1080.2 586.1,1094.5 561.4,1080.2 561.4,1051.7" fill="#0f172a" fill-opacity="0.12"/><polygon points="644.7,1037.4 669.5,1051.7 669.5,1080.2 644.7,1094.5 620.0,1080.2 620.0,1051.7" fill="#0f172a" fill-opacity="0.12"/><polygon points="703.4,1037.4 728.1,1051.7 728.1,1080.2 703.4,1094.5 678.6,1080.2 678.6,1051.7" fill="#0f172a" fill-opacity="0.12"/><polygon points="762.0,1037.4 786.7,1051.7 786.7,1080.2 762.0,1094.5 737.2,1080.2 737.2,1051.7" fill="#0f172a" fill-opacity="0.12"/><polygon points="820.6,1037.4 845.3,1051.7 845.3,1080.2 820.6,1094.5 795.8,1080.2 795.8,1051.7" fill="#0f172a" fill-opacity="0.12"/><polygon points="879.2,1037.4 903.9,1051.7 903.9,1080.2 879.2,1094.5 854.4,1080.2 854.4,1051.7" fill="#0f172a" fill-opacity="0.12"/><polygon points="937.8,1037.4 962.5,1051.7 962.5,1080.2 937.8,1094.5 913.1,1080.2 913.1,1051.7" fill="#0f172a" fill-opacity="0.12"/><polygon points="996.4,1037.4 1021.2,1051.7 1021.2,1080.2 996.4,1094.5 971.7,1080.2 971.7,1051.7" fill="#0f172a" fill-opacity="0.12"/><polygon points="1055.0,1037.4 1079.8,1051.7 1079.8,1080.2 1055.0,1094.5 1030.3,1080.2 1030.3,1051.7" fill="#0f172a" fill-opacity="0.12"/><polygon points="1113.6,1037.4 1138.4,1051.7 1138.4,1080.2 1113.6,1094.5 1088.9,1080.2 1088.9,1051.7" fill="#0f172a" fill-opacity="0.12"/><polygon points="1172.3,1037.4 1197.0,1051.7 1197.0,1080.2 1172.3,1094.5 1147.5,1080.2 1147.5,1051.7" fill="#ea580c" fill-opacity="0.12"/><polygon points="1230.9,1037.4 1255.6,1051.7 1255.6,1080.2 1230.9,1094.5 1206.1,1080.2 1206.1,1051.7" fill="#0f172a" fill-opacity="0.12"/><polygon points="1289.5,1037.4 1314.2,1051.7 1314.2,1080.2 1289.5,1094.5 1264.7,1080.2 1264.7,1051.7" fill="#0f172a" fill-opacity="0.12"/><polygon points="1348.1,1037.4 1372.8,1051.7 1372.8,1080.2 1348.1,1094.5 1323.3,1080.2 1323.3,1051.7" fill="#0f172a" fill-opacity="0.12"/><polygon points="1406.7,1037.4 1431.4,1051.7 1431.4,1080.2 1406.7,1094.5 1382.0,1080.2 1382.0,1051.7" fill="#ea580c" fill-opacity="0.12"/><polygon points="1465.3,1037.4 1490.1,1051.7 1490.1,1080.2 1465.3,1094.5 1440.6,1080.2 1440.6,1051.7" fill="#0f172a" fill-opacity="0.12"/><polygon points="1523.9,1037.4 1548.7,1051.7 1548.7,1080.2 1523.9,1094.5 1499.2,1080.2 1499.2,1051.7" fill="#0f172a" fill-opacity="0.12"/><polygon points="1582.5,1037.4 1607.3,1051.7 1607.3,1080.2 1582.5,1094.5 1557.8,1080.2 1557.8,1051.7" fill="#0f172a" fill-opacity="0.12"/><polygon points="1641.2,1037.4 1665.9,1051.7 1665.9,1080.2 1641.2,1094.5 1616.4,1080.2 1616.4,1051.7" fill="#0f172a" fill-opacity="0.12"/><polygon points="-29.3,1085.4 -2.2,1101.1 -2.2,1132.4 -29.3,1148.0 -56.4,1132.4 -56.4,1101.1" fill="#0f172a" fill-opacity="0.13"/><polygon points="29.3,1085.4 56.4,1101.1 56.4,1132.4 29.3,1148.0 2.2,1132.4 2.2,1101.1" fill="#0f172a" fill-opacity="0.13"/><polygon points="87.9,1085.4 115.0,1101.1 115.0,1132.4 87.9,1148.0 60.8,1132.4 60.8,1101.1" fill="#0f172a" fill-opacity="0.13"/><polygon points="146.5,1085.4 173.6,1101.1 173.6,1132.4 146.5,1148.0 119.4,1132.4 119.4,1101.1" fill="#0f172a" fill-opacity="0.13"/><polygon points="205.1,1085.4 232.2,1101.1 232.2,1132.4 205.1,1148.0 178.1,1132.4 178.1,1101.1" fill="#0f172a" fill-opacity="0.13"/><polygon points="263.8,1085.4 290.8,1101.1 290.8,1132.4 263.8,1148.0 236.7,1132.4 236.7,1101.1" fill="#0f172a" fill-opacity="0.13"/><polygon points="322.4,1085.4 349.5,1101.1 349.5,1132.4 322.4,1148.0 295.3,1132.4 295.3,1101.1" fill="#0f172a" fill-opacity="0.13"/><polygon points="381.0,1085.4 408.1,1101.1 408.1,1132.4 381.0,1148.0 353.9,1132.4 353.9,1101.1" fill="#0f172a" fill-opacity="0.13"/><polygon points="439.6,1085.4 466.7,1101.1 466.7,1132.4 439.6,1148.0 412.5,1132.4 412.5,1101.1" fill="#0f172a" fill-opacity="0.13"/><polygon points="498.2,1085.4 525.3,1101.1 525.3,1132.4 498.2,1148.0 471.1,1132.4 471.1,1101.1" fill="#0f172a" fill-opacity="0.13"/><polygon points="556.8,1085.4 583.9,1101.1 583.9,1132.4 556.8,1148.0 529.7,1132.4 529.7,1101.1" fill="#0f172a" fill-opacity="0.13"/><polygon points="615.4,1085.4 642.5,1101.1 642.5,1132.4 615.4,1148.0 588.3,1132.4 588.3,1101.1" fill="#0f172a" fill-opacity="0.13"/><polygon points="674.0,1085.4 701.1,1101.1 701.1,1132.4 674.0,1148.0 647.0,1132.4 647.0,1101.1" fill="#0f172a" fill-opacity="0.13"/><polygon points="732.7,1085.4 759.8,1101.1 759.8,1132.4 732.7,1148.0 705.6,1132.4 705.6,1101.1" fill="#0f172a" fill-opacity="0.13"/><polygon points="791.3,1085.4 818.4,1101.1 818.4,1132.4 791.3,1148.0 764.2,1132.4 764.2,1101.1" fill="#0f172a" fill-opacity="0.13"/><polygon points="849.9,1085.4 877.0,1101.1 877.0,1132.4 849.9,1148.0 822.8,1132.4 822.8,1101.1" fill="#0f172a" fill-opacity="0.13"/><polygon points="908.5,1085.4 935.6,1101.1 935.6,1132.4 908.5,1148.0 881.4,1132.4 881.4,1101.1" fill="#0f172a" fill-opacity="0.13"/><polygon points="967.1,1085.4 994.2,1101.1 994.2,1132.4 967.1,1148.0 940.0,1132.4 940.0,1101.1" fill="#0f172a" fill-opacity="0.13"/><polygon points="1025.7,1085.4 1052.8,1101.1 1052.8,1132.4 1025.7,1148.0 998.6,1132.4 998.6,1101.1" fill="#0f172a" fill-opacity="0.13"/><polygon points="1084.3,1085.4 1111.4,1101.1 1111.4,1132.4 1084.3,1148.0 1057.2,1132.4 1057.2,1101.1" fill="#0f172a" fill-opacity="0.13"/><polygon points="1142.9,1085.4 1170.0,1101.1 1170.0,1132.4 1142.9,1148.0 1115.9,1132.4 1115.9,1101.1" fill="#0f172a" fill-opacity="0.13"/><polygon points="1201.6,1085.4 1228.7,1101.1 1228.7,1132.4 1201.6,1148.0 1174.5,1132.4 1174.5,1101.1" fill="#0f172a" fill-opacity="0.13"/><polygon points="1260.2,1085.4 1287.3,1101.1 1287.3,1132.4 1260.2,1148.0 1233.1,1132.4 1233.1,1101.1" fill="#0f172a" fill-opacity="0.13"/><polygon points="1318.8,1085.4 1345.9,1101.1 1345.9,1132.4 1318.8,1148.0 1291.7,1132.4 1291.7,1101.1" fill="#0f172a" fill-opacity="0.13"/><polygon points="1377.4,1085.4 1404.5,1101.1 1404.5,1132.4 1377.4,1148.0 1350.3,1132.4 1350.3,1101.1" fill="#0f172a" fill-opacity="0.13"/><polygon points="1436.0,1085.4 1463.1,1101.1 1463.1,1132.4 1436.0,1148.0 1408.9,1132.4 1408.9,1101.1" fill="#0f172a" fill-opacity="0.13"/><polygon points="1494.6,1085.4 1521.7,1101.1 1521.7,1132.4 1494.6,1148.0 1467.5,1132.4 1467.5,1101.1" fill="#0f172a" fill-opacity="0.13"/><polygon points="1553.2,1085.4 1580.3,1101.1 1580.3,1132.4 1553.2,1148.0 1526.1,1132.4 1526.1,1101.1" fill="#0f172a" fill-opacity="0.13"/><polygon points="1611.8,1085.4 1638.9,1101.1 1638.9,1132.4 1611.8,1148.0 1584.8,1132.4 1584.8,1101.1" fill="#0f172a" fill-opacity="0.13"/><polygon points="-58.6,1133.4 -29.1,1150.4 -29.1,1184.5 -58.6,1201.6 -88.2,1184.5 -88.2,1150.4" fill="#0f172a" fill-opacity="0.13"/><polygon points="0.0,1133.4 29.5,1150.4 29.5,1184.5 0.0,1201.6 -29.5,1184.5 -29.5,1150.4" fill="#0f172a" fill-opacity="0.13"/><polygon points="58.6,1133.4 88.2,1150.4 88.2,1184.5 58.6,1201.6 29.1,1184.5 29.1,1150.4" fill="#0f172a" fill-opacity="0.13"/><polygon points="117.2,1133.4 146.8,1150.4 146.8,1184.5 117.2,1201.6 87.7,1184.5 87.7,1150.4" fill="#0f172a" fill-opacity="0.13"/><polygon points="175.8,1133.4 205.4,1150.4 205.4,1184.5 175.8,1201.6 146.3,1184.5 146.3,1150.4" fill="#0f172a" fill-opacity="0.13"/><polygon points="234.5,1133.4 264.0,1150.4 264.0,1184.5 234.5,1201.6 204.9,1184.5 204.9,1150.4" fill="#0f172a" fill-opacity="0.13"/><polygon points="293.1,1133.4 322.6,1150.4 322.6,1184.5 293.1,1201.6 263.5,1184.5 263.5,1150.4" fill="#0f172a" fill-opacity="0.13"/><polygon points="351.7,1133.4 381.2,1150.4 381.2,1184.5 351.7,1201.6 322.1,1184.5 322.1,1150.4" fill="#0f172a" fill-opacity="0.13"/><polygon points="410.3,1133.4 439.8,1150.4 439.8,1184.5 410.3,1201.6 380.7,1184.5 380.7,1150.4" fill="#0f172a" fill-opacity="0.13"/><polygon points="468.9,1133.4 498.4,1150.4 498.4,1184.5 468.9,1201.6 439.4,1184.5 439.4,1150.4" fill="#0f172a" fill-opacity="0.13"/><polygon points="527.5,1133.4 557.1,1150.4 557.1,1184.5 527.5,1201.6 498.0,1184.5 498.0,1150.4" fill="#0f172a" fill-opacity="0.13"/><polygon points="586.1,1133.4 615.7,1150.4 615.7,1184.5 586.1,1201.6 556.6,1184.5 556.6,1150.4" fill="#0f172a" fill-opacity="0.13"/><polygon points="644.7,1133.4 674.3,1150.4 674.3,1184.5 644.7,1201.6 615.2,1184.5 615.2,1150.4" fill="#0f172a" fill-opacity="0.13"/><polygon points="703.4,1133.4 732.9,1150.4 732.9,1184.5 703.4,1201.6 673.8,1184.5 673.8,1150.4" fill="#0f172a" fill-opacity="0.13"/><polygon points="762.0,1133.4 791.5,1150.4 791.5,1184.5 762.0,1201.6 732.4,1184.5 732.4,1150.4" fill="#0f172a" fill-opacity="0.13"/><polygon points="820.6,1133.4 850.1,1150.4 850.1,1184.5 820.6,1201.6 791.0,1184.5 791.0,1150.4" fill="#0f172a" fill-opacity="0.13"/><polygon points="879.2,1133.4 908.7,1150.4 908.7,1184.5 879.2,1201.6 849.6,1184.5 849.6,1150.4" fill="#0f172a" fill-opacity="0.13"/><polygon points="937.8,1133.4 967.3,1150.4 967.3,1184.5 937.8,1201.6 908.3,1184.5 908.3,1150.4" fill="#0f172a" fill-opacity="0.13"/><polygon points="996.4,1133.4 1026.0,1150.4 1026.0,1184.5 996.4,1201.6 966.9,1184.5 966.9,1150.4" fill="#0f172a" fill-opacity="0.13"/><polygon points="1055.0,1133.4 1084.6,1150.4 1084.6,1184.5 1055.0,1201.6 1025.5,1184.5 1025.5,1150.4" fill="#0f172a" fill-opacity="0.13"/><polygon points="1113.6,1133.4 1143.2,1150.4 1143.2,1184.5 1113.6,1201.6 1084.1,1184.5 1084.1,1150.4" fill="#0f172a" fill-opacity="0.13"/><polygon points="1172.3,1133.4 1201.8,1150.4 1201.8,1184.5 1172.3,1201.6 1142.7,1184.5 1142.7,1150.4" fill="#0f172a" fill-opacity="0.13"/><polygon points="1230.9,1133.4 1260.4,1150.4 1260.4,1184.5 1230.9,1201.6 1201.3,1184.5 1201.3,1150.4" fill="#0f172a" fill-opacity="0.13"/><polygon points="1289.5,1133.4 1319.0,1150.4 1319.0,1184.5 1289.5,1201.6 1259.9,1184.5 1259.9,1150.4" fill="#0f172a" fill-opacity="0.13"/><polygon points="1348.1,1133.4 1377.6,1150.4 1377.6,1184.5 1348.1,1201.6 1318.5,1184.5 1318.5,1150.4" fill="#0f172a" fill-opacity="0.13"/><polygon points="1406.7,1133.4 1436.2,1150.4 1436.2,1184.5 1406.7,1201.6 1377.2,1184.5 1377.2,1150.4" fill="#0f172a" fill-opacity="0.13"/><polygon points="1465.3,1133.4 1494.9,1150.4 1494.9,1184.5 1465.3,1201.6 1435.8,1184.5 1435.8,1150.4" fill="#0f172a" fill-opacity="0.13"/><polygon points="1523.9,1133.4 1553.5,1150.4 1553.5,1184.5 1523.9,1201.6 1494.4,1184.5 1494.4,1150.4" fill="#0f172a" fill-opacity="0.13"/><polygon points="1582.5,1133.4 1612.1,1150.4 1612.1,1184.5 1582.5,1201.6 1553.0,1184.5 1553.0,1150.4" fill="#0f172a" fill-opacity="0.13"/><polygon points="1641.2,1133.4 1670.7,1150.4 1670.7,1184.5 1641.2,1201.6 1611.6,1184.5 1611.6,1150.4" fill="#0f172a" fill-opacity="0.13"/><polygon points="-29.3,1182.2 1.9,1200.2 1.9,1236.2 -29.3,1254.2 -60.5,1236.2 -60.5,1200.2" fill="#ea580c" fill-opacity="0.14"/><polygon points="29.3,1182.2 60.5,1200.2 60.5,1236.2 29.3,1254.2 -1.9,1236.2 -1.9,1200.2" fill="#0f172a" fill-opacity="0.14"/><polygon points="87.9,1182.2 119.1,1200.2 119.1,1236.2 87.9,1254.2 56.7,1236.2 56.7,1200.2" fill="#0f172a" fill-opacity="0.14"/><polygon points="146.5,1182.2 177.7,1200.2 177.7,1236.2 146.5,1254.2 115.4,1236.2 115.4,1200.2" fill="#0f172a" fill-opacity="0.14"/><polygon points="205.1,1182.2 236.3,1200.2 236.3,1236.2 205.1,1254.2 174.0,1236.2 174.0,1200.2" fill="#0f172a" fill-opacity="0.14"/><polygon points="263.8,1182.2 294.9,1200.2 294.9,1236.2 263.8,1254.2 232.6,1236.2 232.6,1200.2" fill="#0f172a" fill-opacity="0.14"/><polygon points="322.4,1182.2 353.5,1200.2 353.5,1236.2 322.4,1254.2 291.2,1236.2 291.2,1200.2" fill="#0f172a" fill-opacity="0.14"/><polygon points="381.0,1182.2 412.2,1200.2 412.2,1236.2 381.0,1254.2 349.8,1236.2 349.8,1200.2" fill="#0f172a" fill-opacity="0.14"/><polygon points="439.6,1182.2 470.8,1200.2 470.8,1236.2 439.6,1254.2 408.4,1236.2 408.4,1200.2" fill="#0f172a" fill-opacity="0.14"/><polygon points="498.2,1182.2 529.4,1200.2 529.4,1236.2 498.2,1254.2 467.0,1236.2 467.0,1200.2" fill="#0f172a" fill-opacity="0.14"/><polygon points="556.8,1182.2 588.0,1200.2 588.0,1236.2 556.8,1254.2 525.6,1236.2 525.6,1200.2" fill="#0f172a" fill-opacity="0.14"/><polygon points="615.4,1182.2 646.6,1200.2 646.6,1236.2 615.4,1254.2 584.3,1236.2 584.3,1200.2" fill="#0f172a" fill-opacity="0.14"/><polygon points="674.0,1182.2 705.2,1200.2 705.2,1236.2 674.0,1254.2 642.9,1236.2 642.9,1200.2" fill="#0f172a" fill-opacity="0.14"/><polygon points="732.7,1182.2 763.8,1200.2 763.8,1236.2 732.7,1254.2 701.5,1236.2 701.5,1200.2" fill="#0f172a" fill-opacity="0.14"/><polygon points="791.3,1182.2 822.4,1200.2 822.4,1236.2 791.3,1254.2 760.1,1236.2 760.1,1200.2" fill="#0f172a" fill-opacity="0.14"/><polygon points="849.9,1182.2 881.1,1200.2 881.1,1236.2 849.9,1254.2 818.7,1236.2 818.7,1200.2" fill="#0f172a" fill-opacity="0.14"/><polygon points="908.5,1182.2 939.7,1200.2 939.7,1236.2 908.5,1254.2 877.3,1236.2 877.3,1200.2" fill="#0f172a" fill-opacity="0.14"/><polygon points="967.1,1182.2 998.3,1200.2 998.3,1236.2 967.1,1254.2 935.9,1236.2 935.9,1200.2" fill="#0f172a" fill-opacity="0.14"/><polygon points="1025.7,1182.2 1056.9,1200.2 1056.9,1236.2 1025.7,1254.2 994.5,1236.2 994.5,1200.2" fill="#0f172a" fill-opacity="0.14"/><polygon points="1084.3,1182.2 1115.5,1200.2 1115.5,1236.2 1084.3,1254.2 1053.2,1236.2 1053.2,1200.2" fill="#0f172a" fill-opacity="0.14"/><polygon points="1142.9,1182.2 1174.1,1200.2 1174.1,1236.2 1142.9,1254.2 1111.8,1236.2 1111.8,1200.2" fill="#0f172a" fill-opacity="0.14"/><polygon points="1201.6,1182.2 1232.7,1200.2 1232.7,1236.2 1201.6,1254.2 1170.4,1236.2 1170.4,1200.2" fill="#0f172a" fill-opacity="0.14"/><polygon points="1260.2,1182.2 1291.3,1200.2 1291.3,1236.2 1260.2,1254.2 1229.0,1236.2 1229.0,1200.2" fill="#0f172a" fill-opacity="0.14"/><polygon points="1318.8,1182.2 1350.0,1200.2 1350.0,1236.2 1318.8,1254.2 1287.6,1236.2 1287.6,1200.2" fill="#0f172a" fill-opacity="0.14"/><polygon points="1377.4,1182.2 1408.6,1200.2 1408.6,1236.2 1377.4,1254.2 1346.2,1236.2 1346.2,1200.2" fill="#ea580c" fill-opacity="0.14"/><polygon points="1436.0,1182.2 1467.2,1200.2 1467.2,1236.2 1436.0,1254.2 1404.8,1236.2 1404.8,1200.2" fill="#0f172a" fill-opacity="0.14"/><polygon points="1494.6,1182.2 1525.8,1200.2 1525.8,1236.2 1494.6,1254.2 1463.4,1236.2 1463.4,1200.2" fill="#0f172a" fill-opacity="0.14"/><polygon points="1553.2,1182.2 1584.4,1200.2 1584.4,1236.2 1553.2,1254.2 1522.1,1236.2 1522.1,1200.2" fill="#0f172a" fill-opacity="0.14"/><polygon points="1611.8,1182.2 1643.0,1200.2 1643.0,1236.2 1611.8,1254.2 1580.7,1236.2 1580.7,1200.2" fill="#0f172a" fill-opacity="0.14"/></g></svg>